<svg xmlns="http://www.w3.org/2000/svg" xmlns:xlink="http://www.w3.org/1999/xlink" width="500" zoomAndPan="magnify" viewBox="0 0 375 374.999991" height="500" preserveAspectRatio="xMidYMid meet" version="1.0"><defs><g/></defs><rect x="-37.5" width="450" fill="#ffffff" y="-37.499999" height="449.999989" fill-opacity="1"/><rect x="-37.5" width="450" fill="#f6f5f5" y="-37.499999" height="449.999989" fill-opacity="1"/><g fill="#6d6e71" fill-opacity="1"><g transform="translate(110.300322, 188.613699)"><g><path d="M 15.0625 -2.15625 C 15.363281 -1.707031 15.695312 -1.351562 16.0625 -1.09375 C 16.425781 -0.84375 16.875 -0.65625 17.40625 -0.53125 L 17.40625 0 C 16.550781 -0.0507812 15.484375 -0.078125 14.203125 -0.078125 C 13.242188 -0.078125 12.332031 -0.0507812 11.46875 0 L 11.46875 -0.53125 C 11.894531 -0.550781 12.203125 -0.601562 12.390625 -0.6875 C 12.585938 -0.78125 12.6875 -0.914062 12.6875 -1.09375 C 12.6875 -1.269531 12.597656 -1.484375 12.421875 -1.734375 L 8.546875 -7.578125 C 8.023438 -8.359375 7.585938 -8.867188 7.234375 -9.109375 C 6.878906 -9.347656 6.382812 -9.488281 5.75 -9.53125 L 5.75 -2.828125 C 5.75 -2.148438 5.800781 -1.660156 5.90625 -1.359375 C 6.007812 -1.054688 6.207031 -0.847656 6.5 -0.734375 C 6.789062 -0.628906 7.257812 -0.5625 7.90625 -0.53125 L 7.90625 0 C 7.082031 -0.0507812 5.957031 -0.078125 4.53125 -0.078125 C 3 -0.078125 1.863281 -0.0507812 1.125 0 L 1.125 -0.53125 C 1.757812 -0.5625 2.222656 -0.628906 2.515625 -0.734375 C 2.804688 -0.847656 3.003906 -1.054688 3.109375 -1.359375 C 3.210938 -1.660156 3.265625 -2.148438 3.265625 -2.828125 L 3.265625 -16.015625 C 3.265625 -16.691406 3.210938 -17.179688 3.109375 -17.484375 C 3.003906 -17.785156 2.804688 -17.988281 2.515625 -18.09375 C 2.222656 -18.195312 1.757812 -18.269531 1.125 -18.3125 L 1.125 -18.84375 C 1.863281 -18.789062 3 -18.765625 4.53125 -18.765625 C 5.945312 -18.765625 7.070312 -18.789062 7.90625 -18.84375 L 7.90625 -18.3125 C 7.257812 -18.269531 6.789062 -18.195312 6.5 -18.09375 C 6.207031 -17.988281 6.007812 -17.785156 5.90625 -17.484375 C 5.800781 -17.179688 5.75 -16.691406 5.75 -16.015625 L 5.75 -10.0625 C 7.039062 -10.113281 8.050781 -10.609375 8.78125 -11.546875 L 11.328125 -14.796875 C 12.234375 -15.910156 12.6875 -16.757812 12.6875 -17.34375 C 12.6875 -17.96875 12.140625 -18.289062 11.046875 -18.3125 L 11.046875 -18.84375 C 12.054688 -18.789062 13.078125 -18.765625 14.109375 -18.765625 C 15.078125 -18.765625 15.828125 -18.789062 16.359375 -18.84375 L 16.359375 -18.3125 C 15.773438 -18.21875 15.222656 -18.023438 14.703125 -17.734375 C 14.191406 -17.441406 13.695312 -16.984375 13.21875 -16.359375 L 8.890625 -10.796875 Z M 15.0625 -2.15625 "/></g></g></g><g fill="#6d6e71" fill-opacity="1"><g transform="translate(130.391925, 188.613699)"><g><path d="M 17.859375 -19.21875 C 18.972656 -19.21875 19.894531 -18.890625 20.625 -18.234375 C 21.363281 -17.585938 21.734375 -16.71875 21.734375 -15.625 C 21.734375 -14.769531 21.503906 -14.023438 21.046875 -13.390625 C 20.585938 -12.765625 19.976562 -12.265625 19.21875 -11.890625 C 18.539062 -11.578125 17.226562 -11.117188 15.28125 -10.515625 C 16.269531 -10.085938 17 -9.476562 17.46875 -8.6875 C 17.9375 -7.894531 18.171875 -6.992188 18.171875 -5.984375 C 18.171875 -4.890625 17.84375 -3.851562 17.1875 -2.875 C 16.53125 -1.894531 15.585938 -1.109375 14.359375 -0.515625 C 13.140625 0.078125 11.707031 0.375 10.0625 0.375 C 8.519531 0.375 7.085938 0.101562 5.765625 -0.4375 C 4.441406 -0.976562 3.390625 -1.75 2.609375 -2.75 C 1.828125 -3.75 1.4375 -4.914062 1.4375 -6.25 C 1.4375 -7.425781 1.722656 -8.414062 2.296875 -9.21875 C 2.878906 -10.03125 3.539062 -10.644531 4.28125 -11.0625 C 5.03125 -11.476562 5.722656 -11.765625 6.359375 -11.921875 C 5.492188 -12.296875 4.828125 -12.789062 4.359375 -13.40625 C 3.898438 -14.03125 3.671875 -14.679688 3.671875 -15.359375 C 3.671875 -15.941406 3.84375 -16.484375 4.1875 -16.984375 C 4.53125 -17.492188 5.046875 -17.90625 5.734375 -18.21875 C 6.421875 -18.53125 7.234375 -18.6875 8.171875 -18.6875 C 9.359375 -18.6875 10.28125 -18.414062 10.9375 -17.875 C 11.257812 -17.613281 11.503906 -17.316406 11.671875 -16.984375 C 11.835938 -16.660156 11.921875 -16.347656 11.921875 -16.046875 C 11.921875 -15.617188 11.769531 -15.273438 11.46875 -15.015625 C 11.164062 -14.765625 10.820312 -14.640625 10.4375 -14.640625 C 10.0625 -14.640625 9.734375 -14.757812 9.453125 -15 C 9.179688 -15.238281 9.046875 -15.5625 9.046875 -15.96875 C 9.046875 -16.351562 9.175781 -16.679688 9.4375 -16.953125 C 9.707031 -17.234375 10.046875 -17.390625 10.453125 -17.421875 C 10.367188 -17.660156 10.144531 -17.863281 9.78125 -18.03125 C 9.414062 -18.195312 8.96875 -18.28125 8.4375 -18.28125 C 7.507812 -18.28125 6.757812 -18 6.1875 -17.4375 C 5.625 -16.882812 5.34375 -16.109375 5.34375 -15.109375 C 5.34375 -13.921875 5.796875 -12.910156 6.703125 -12.078125 C 7.328125 -12.179688 7.878906 -12.234375 8.359375 -12.234375 C 8.671875 -12.234375 8.925781 -12.179688 9.125 -12.078125 C 9.320312 -11.972656 9.421875 -11.820312 9.421875 -11.625 C 9.421875 -11.46875 9.351562 -11.34375 9.21875 -11.25 C 9.082031 -11.164062 8.898438 -11.125 8.671875 -11.125 C 8.390625 -11.125 8.097656 -11.175781 7.796875 -11.28125 C 7.492188 -11.382812 7.140625 -11.523438 6.734375 -11.703125 C 4.421875 -11.015625 3.265625 -9.5625 3.265625 -7.34375 C 3.265625 -6.15625 3.578125 -5.125 4.203125 -4.25 C 4.828125 -3.382812 5.675781 -2.722656 6.75 -2.265625 C 7.832031 -1.816406 9.050781 -1.59375 10.40625 -1.59375 C 11.664062 -1.59375 12.832031 -1.789062 13.90625 -2.1875 C 14.976562 -2.59375 15.828125 -3.160156 16.453125 -3.890625 C 17.085938 -4.628906 17.40625 -5.488281 17.40625 -6.46875 C 17.40625 -7.175781 17.21875 -7.894531 16.84375 -8.625 C 16.46875 -9.351562 15.757812 -9.921875 14.71875 -10.328125 C 13.332031 -9.898438 12.3125 -9.5625 11.65625 -9.3125 C 10.90625 -9.03125 10.328125 -8.707031 9.921875 -8.34375 C 9.515625 -7.976562 9.3125 -7.53125 9.3125 -7 C 9.3125 -6.363281 9.570312 -5.847656 10.09375 -5.453125 C 10.625 -5.066406 11.179688 -4.875 11.765625 -4.875 C 12.066406 -4.875 12.394531 -4.925781 12.75 -5.03125 C 13.101562 -5.132812 13.304688 -5.273438 13.359375 -5.453125 C 13.023438 -5.523438 12.734375 -5.664062 12.484375 -5.875 C 12.234375 -6.09375 12.109375 -6.40625 12.109375 -6.8125 C 12.109375 -7.238281 12.242188 -7.578125 12.515625 -7.828125 C 12.796875 -8.078125 13.148438 -8.203125 13.578125 -8.203125 C 13.992188 -8.203125 14.332031 -8.066406 14.59375 -7.796875 C 14.851562 -7.523438 14.984375 -7.179688 14.984375 -6.765625 C 14.984375 -6.046875 14.65625 -5.484375 14 -5.078125 C 13.34375 -4.671875 12.613281 -4.46875 11.8125 -4.46875 C 10.945312 -4.46875 10.179688 -4.726562 9.515625 -5.25 C 8.847656 -5.78125 8.515625 -6.554688 8.515625 -7.578125 C 8.515625 -8.484375 8.816406 -9.25 9.421875 -9.875 C 10.035156 -10.507812 10.957031 -11.039062 12.1875 -11.46875 L 14.078125 -12.03125 C 15.140625 -12.332031 16.023438 -12.597656 16.734375 -12.828125 C 17.441406 -13.054688 18.09375 -13.304688 18.6875 -13.578125 C 19.53125 -13.960938 20.117188 -14.359375 20.453125 -14.765625 C 20.796875 -15.171875 20.96875 -15.625 20.96875 -16.125 C 20.96875 -16.875 20.660156 -17.507812 20.046875 -18.03125 C 19.429688 -18.550781 18.707031 -18.8125 17.875 -18.8125 C 17.4375 -18.8125 17.171875 -18.734375 17.078125 -18.578125 C 17.304688 -18.460938 17.488281 -18.285156 17.625 -18.046875 C 17.757812 -17.804688 17.828125 -17.570312 17.828125 -17.34375 C 17.828125 -16.976562 17.679688 -16.671875 17.390625 -16.421875 C 17.097656 -16.171875 16.75 -16.046875 16.34375 -16.046875 C 15.96875 -16.046875 15.632812 -16.160156 15.34375 -16.390625 C 15.0625 -16.617188 14.921875 -16.945312 14.921875 -17.375 C 14.921875 -18.007812 15.21875 -18.472656 15.8125 -18.765625 C 16.40625 -19.066406 17.085938 -19.21875 17.859375 -19.21875 Z M 17.859375 -19.21875 "/></g></g></g><g fill="#6d6e71" fill-opacity="1"><g transform="translate(155.326554, 188.613699)"><g><path d="M 15.0625 -2.15625 C 15.363281 -1.707031 15.695312 -1.351562 16.0625 -1.09375 C 16.425781 -0.84375 16.875 -0.65625 17.40625 -0.53125 L 17.40625 0 C 16.550781 -0.0507812 15.484375 -0.078125 14.203125 -0.078125 C 13.242188 -0.078125 12.332031 -0.0507812 11.46875 0 L 11.46875 -0.53125 C 11.894531 -0.550781 12.203125 -0.601562 12.390625 -0.6875 C 12.585938 -0.78125 12.6875 -0.914062 12.6875 -1.09375 C 12.6875 -1.269531 12.597656 -1.484375 12.421875 -1.734375 L 8.546875 -7.578125 C 8.023438 -8.359375 7.585938 -8.867188 7.234375 -9.109375 C 6.878906 -9.347656 6.382812 -9.488281 5.75 -9.53125 L 5.75 -2.828125 C 5.75 -2.148438 5.800781 -1.660156 5.90625 -1.359375 C 6.007812 -1.054688 6.207031 -0.847656 6.5 -0.734375 C 6.789062 -0.628906 7.257812 -0.5625 7.90625 -0.53125 L 7.90625 0 C 7.082031 -0.0507812 5.957031 -0.078125 4.53125 -0.078125 C 3 -0.078125 1.863281 -0.0507812 1.125 0 L 1.125 -0.53125 C 1.757812 -0.5625 2.222656 -0.628906 2.515625 -0.734375 C 2.804688 -0.847656 3.003906 -1.054688 3.109375 -1.359375 C 3.210938 -1.660156 3.265625 -2.148438 3.265625 -2.828125 L 3.265625 -16.015625 C 3.265625 -16.691406 3.210938 -17.179688 3.109375 -17.484375 C 3.003906 -17.785156 2.804688 -17.988281 2.515625 -18.09375 C 2.222656 -18.195312 1.757812 -18.269531 1.125 -18.3125 L 1.125 -18.84375 C 1.863281 -18.789062 3 -18.765625 4.53125 -18.765625 C 5.945312 -18.765625 7.070312 -18.789062 7.90625 -18.84375 L 7.90625 -18.3125 C 7.257812 -18.269531 6.789062 -18.195312 6.5 -18.09375 C 6.207031 -17.988281 6.007812 -17.785156 5.90625 -17.484375 C 5.800781 -17.179688 5.75 -16.691406 5.75 -16.015625 L 5.75 -10.0625 C 7.039062 -10.113281 8.050781 -10.609375 8.78125 -11.546875 L 11.328125 -14.796875 C 12.234375 -15.910156 12.6875 -16.757812 12.6875 -17.34375 C 12.6875 -17.96875 12.140625 -18.289062 11.046875 -18.3125 L 11.046875 -18.84375 C 12.054688 -18.789062 13.078125 -18.765625 14.109375 -18.765625 C 15.078125 -18.765625 15.828125 -18.789062 16.359375 -18.84375 L 16.359375 -18.3125 C 15.773438 -18.21875 15.222656 -18.023438 14.703125 -17.734375 C 14.191406 -17.441406 13.695312 -16.984375 13.21875 -16.359375 L 8.890625 -10.796875 Z M 15.0625 -2.15625 "/></g></g></g><g fill="#6d6e71" fill-opacity="1"><g transform="translate(175.418158, 188.613699)"><g/></g></g><g fill="#6d6e71" fill-opacity="1"><g transform="translate(184.706091, 188.613699)"><g><path d="M 19.03125 -18.3125 C 18.382812 -18.269531 17.914062 -18.195312 17.625 -18.09375 C 17.332031 -17.988281 17.132812 -17.785156 17.03125 -17.484375 C 16.925781 -17.179688 16.875 -16.691406 16.875 -16.015625 L 16.875 -2.828125 C 16.875 -2.148438 16.925781 -1.660156 17.03125 -1.359375 C 17.132812 -1.054688 17.332031 -0.847656 17.625 -0.734375 C 17.914062 -0.628906 18.382812 -0.5625 19.03125 -0.53125 L 19.03125 0 C 18.28125 -0.0507812 17.144531 -0.078125 15.625 -0.078125 C 14.1875 -0.078125 13.054688 -0.0507812 12.234375 0 L 12.234375 -0.53125 C 12.878906 -0.5625 13.347656 -0.628906 13.640625 -0.734375 C 13.929688 -0.847656 14.128906 -1.054688 14.234375 -1.359375 C 14.335938 -1.660156 14.390625 -2.148438 14.390625 -2.828125 L 14.390625 -9.203125 L 5.75 -9.203125 L 5.75 -2.828125 C 5.75 -2.148438 5.800781 -1.660156 5.90625 -1.359375 C 6.007812 -1.054688 6.207031 -0.847656 6.5 -0.734375 C 6.789062 -0.628906 7.257812 -0.5625 7.90625 -0.53125 L 7.90625 0 C 7.082031 -0.0507812 5.957031 -0.078125 4.53125 -0.078125 C 3 -0.078125 1.863281 -0.0507812 1.125 0 L 1.125 -0.53125 C 1.757812 -0.5625 2.222656 -0.628906 2.515625 -0.734375 C 2.804688 -0.847656 3.003906 -1.054688 3.109375 -1.359375 C 3.210938 -1.660156 3.265625 -2.148438 3.265625 -2.828125 L 3.265625 -16.015625 C 3.265625 -16.691406 3.210938 -17.179688 3.109375 -17.484375 C 3.003906 -17.785156 2.804688 -17.988281 2.515625 -18.09375 C 2.222656 -18.195312 1.757812 -18.269531 1.125 -18.3125 L 1.125 -18.84375 C 1.863281 -18.789062 3 -18.765625 4.53125 -18.765625 C 5.945312 -18.765625 7.070312 -18.789062 7.90625 -18.84375 L 7.90625 -18.3125 C 7.257812 -18.269531 6.789062 -18.195312 6.5 -18.09375 C 6.207031 -17.988281 6.007812 -17.785156 5.90625 -17.484375 C 5.800781 -17.179688 5.75 -16.691406 5.75 -16.015625 L 5.75 -9.734375 L 14.390625 -9.734375 L 14.390625 -16.015625 C 14.390625 -16.691406 14.335938 -17.179688 14.234375 -17.484375 C 14.128906 -17.785156 13.929688 -17.988281 13.640625 -18.09375 C 13.347656 -18.195312 12.878906 -18.269531 12.234375 -18.3125 L 12.234375 -18.84375 C 13.054688 -18.789062 14.1875 -18.765625 15.625 -18.765625 C 17.144531 -18.765625 18.28125 -18.789062 19.03125 -18.84375 Z M 19.03125 -18.3125 "/></g></g></g><g fill="#6d6e71" fill-opacity="1"><g transform="translate(207.511918, 188.613699)"><g><path d="M 14.953125 -18.765625 C 15.753906 -18.765625 16.421875 -18.789062 16.953125 -18.84375 L 16.953125 -18.3125 C 16.066406 -18.09375 15.363281 -17.320312 14.84375 -16 L 8.59375 0.140625 L 8.171875 0.140625 L 1.671875 -16.609375 C 1.242188 -17.703125 0.632812 -18.269531 -0.15625 -18.3125 L -0.15625 -18.84375 C 0.550781 -18.789062 1.5 -18.765625 2.6875 -18.765625 C 4.207031 -18.765625 5.34375 -18.789062 6.09375 -18.84375 L 6.09375 -18.3125 C 5.414062 -18.269531 4.929688 -18.179688 4.640625 -18.046875 C 4.347656 -17.921875 4.203125 -17.679688 4.203125 -17.328125 C 4.203125 -17.023438 4.3125 -16.609375 4.53125 -16.078125 L 9.34375 -3.265625 L 13.671875 -14.53125 C 14.023438 -15.488281 14.203125 -16.210938 14.203125 -16.703125 C 14.203125 -17.253906 14.007812 -17.65625 13.625 -17.90625 C 13.25 -18.15625 12.671875 -18.289062 11.890625 -18.3125 L 11.890625 -18.84375 C 12.898438 -18.789062 13.921875 -18.765625 14.953125 -18.765625 Z M 14.953125 -18.765625 "/></g></g></g><g fill="#6d6e71" fill-opacity="1"><g transform="translate(226.938275, 188.613699)"><g><path d="M 15.09375 -2.234375 C 15.507812 -1.128906 16.117188 -0.5625 16.921875 -0.53125 L 16.921875 0 C 16.210938 -0.0507812 15.265625 -0.078125 14.078125 -0.078125 C 12.546875 -0.078125 11.410156 -0.0507812 10.671875 0 L 10.671875 -0.53125 C 11.347656 -0.5625 11.832031 -0.644531 12.125 -0.78125 C 12.414062 -0.914062 12.5625 -1.160156 12.5625 -1.515625 C 12.5625 -1.816406 12.453125 -2.234375 12.234375 -2.765625 L 10.609375 -7.125 L 4.171875 -7.125 L 3.09375 -4.3125 C 2.726562 -3.351562 2.546875 -2.625 2.546875 -2.125 C 2.546875 -1.570312 2.738281 -1.171875 3.125 -0.921875 C 3.507812 -0.679688 4.09375 -0.550781 4.875 -0.53125 L 4.875 0 C 3.863281 -0.0507812 2.84375 -0.078125 1.8125 -0.078125 C 1.007812 -0.078125 0.34375 -0.0507812 -0.1875 0 L -0.1875 -0.53125 C 0.695312 -0.738281 1.398438 -1.507812 1.921875 -2.84375 L 8.171875 -18.96875 L 8.59375 -18.96875 Z M 10.40625 -7.65625 L 7.421875 -15.625 L 4.390625 -7.65625 Z M 10.40625 -7.65625 "/></g></g></g><g fill="#6d6e71" fill-opacity="1"><g transform="translate(246.364632, 188.613699)"><g><path d="M 9.875 -19.21875 C 10.9375 -19.21875 11.835938 -19.066406 12.578125 -18.765625 C 13.328125 -18.460938 14.054688 -18.035156 14.765625 -17.484375 C 14.960938 -17.328125 15.132812 -17.25 15.28125 -17.25 C 15.632812 -17.25 15.863281 -17.78125 15.96875 -18.84375 L 16.578125 -18.84375 C 16.503906 -17.6875 16.46875 -15.644531 16.46875 -12.71875 L 15.859375 -12.71875 C 15.660156 -13.875 15.484375 -14.703125 15.328125 -15.203125 C 15.171875 -15.710938 14.90625 -16.195312 14.53125 -16.65625 C 14 -17.34375 13.316406 -17.859375 12.484375 -18.203125 C 11.660156 -18.554688 10.769531 -18.734375 9.8125 -18.734375 C 8.664062 -18.734375 7.660156 -18.347656 6.796875 -17.578125 C 5.941406 -16.816406 5.273438 -15.734375 4.796875 -14.328125 C 4.316406 -12.921875 4.078125 -11.265625 4.078125 -9.359375 C 4.078125 -7.429688 4.332031 -5.773438 4.84375 -4.390625 C 5.351562 -3.003906 6.066406 -1.953125 6.984375 -1.234375 C 7.898438 -0.515625 8.929688 -0.15625 10.078125 -0.15625 C 10.972656 -0.15625 11.835938 -0.320312 12.671875 -0.65625 C 13.503906 -1 14.160156 -1.507812 14.640625 -2.1875 C 14.992188 -2.675781 15.25 -3.203125 15.40625 -3.765625 C 15.5625 -4.335938 15.710938 -5.210938 15.859375 -6.390625 L 16.46875 -6.390625 C 16.46875 -3.335938 16.503906 -1.207031 16.578125 0 L 15.96875 0 C 15.914062 -0.5625 15.835938 -0.960938 15.734375 -1.203125 C 15.640625 -1.441406 15.503906 -1.5625 15.328125 -1.5625 C 15.179688 -1.5625 14.992188 -1.492188 14.765625 -1.359375 C 13.972656 -0.785156 13.210938 -0.351562 12.484375 -0.0625 C 11.753906 0.226562 10.875 0.375 9.84375 0.375 C 8.15625 0.375 6.675781 -0.00390625 5.40625 -0.765625 C 4.144531 -1.535156 3.160156 -2.640625 2.453125 -4.078125 C 1.753906 -5.523438 1.40625 -7.253906 1.40625 -9.265625 C 1.40625 -11.210938 1.765625 -12.9375 2.484375 -14.4375 C 3.203125 -15.945312 4.203125 -17.117188 5.484375 -17.953125 C 6.773438 -18.796875 8.238281 -19.21875 9.875 -19.21875 Z M 9.875 -19.21875 "/></g></g></g><g fill="#6d6e71" fill-opacity="1"><g transform="translate(55.386028, 224.547519)"><g><path d="M 2.421875 -2.75 C 2.640625 -2.75 2.832031 -2.78125 3 -2.84375 C 3.164062 -2.90625 3.304688 -2.988281 3.421875 -3.09375 C 3.546875 -3.195312 3.632812 -3.320312 3.6875 -3.46875 C 3.75 -3.613281 3.78125 -3.773438 3.78125 -3.953125 C 3.78125 -4.316406 3.664062 -4.597656 3.4375 -4.796875 C 3.21875 -5.003906 2.878906 -5.109375 2.421875 -5.109375 L 1.5 -5.109375 L 1.5 -2.75 Z M 2.421875 -5.71875 C 2.785156 -5.71875 3.097656 -5.675781 3.359375 -5.59375 C 3.628906 -5.507812 3.851562 -5.390625 4.03125 -5.234375 C 4.207031 -5.078125 4.335938 -4.890625 4.421875 -4.671875 C 4.503906 -4.453125 4.546875 -4.210938 4.546875 -3.953125 C 4.546875 -3.679688 4.5 -3.4375 4.40625 -3.21875 C 4.3125 -3 4.175781 -2.804688 4 -2.640625 C 3.820312 -2.484375 3.597656 -2.359375 3.328125 -2.265625 C 3.066406 -2.179688 2.765625 -2.140625 2.421875 -2.140625 L 1.5 -2.140625 L 1.5 0 L 0.734375 0 L 0.734375 -5.71875 Z M 2.421875 -5.71875 "/></g></g></g><g fill="#6d6e71" fill-opacity="1"><g transform="translate(63.37621, 224.547519)"><g><path d="M 2.3125 -2.953125 C 2.539062 -2.953125 2.738281 -2.976562 2.90625 -3.03125 C 3.082031 -3.082031 3.226562 -3.15625 3.34375 -3.25 C 3.457031 -3.351562 3.539062 -3.472656 3.59375 -3.609375 C 3.65625 -3.753906 3.6875 -3.910156 3.6875 -4.078125 C 3.6875 -4.421875 3.570312 -4.675781 3.34375 -4.84375 C 3.125 -5.019531 2.789062 -5.109375 2.34375 -5.109375 L 1.5 -5.109375 L 1.5 -2.953125 Z M 4.953125 0 L 4.265625 0 C 4.128906 0 4.023438 -0.0507812 3.953125 -0.15625 L 2.46875 -2.203125 C 2.425781 -2.265625 2.378906 -2.3125 2.328125 -2.34375 C 2.273438 -2.375 2.195312 -2.390625 2.09375 -2.390625 L 1.5 -2.390625 L 1.5 0 L 0.734375 0 L 0.734375 -5.71875 L 2.34375 -5.71875 C 2.707031 -5.71875 3.019531 -5.679688 3.28125 -5.609375 C 3.550781 -5.535156 3.769531 -5.425781 3.9375 -5.28125 C 4.113281 -5.144531 4.238281 -4.976562 4.3125 -4.78125 C 4.394531 -4.59375 4.4375 -4.378906 4.4375 -4.140625 C 4.4375 -3.929688 4.40625 -3.738281 4.34375 -3.5625 C 4.28125 -3.394531 4.1875 -3.238281 4.0625 -3.09375 C 3.945312 -2.957031 3.800781 -2.835938 3.625 -2.734375 C 3.445312 -2.640625 3.25 -2.566406 3.03125 -2.515625 C 3.132812 -2.460938 3.222656 -2.378906 3.296875 -2.265625 Z M 4.953125 0 "/></g></g></g><g fill="#6d6e71" fill-opacity="1"><g transform="translate(71.574028, 224.547519)"><g><path d="M 6.015625 -2.859375 C 6.015625 -2.429688 5.945312 -2.035156 5.8125 -1.671875 C 5.675781 -1.316406 5.484375 -1.007812 5.234375 -0.75 C 4.984375 -0.5 4.6875 -0.300781 4.34375 -0.15625 C 4 -0.0078125 3.613281 0.0625 3.1875 0.0625 C 2.769531 0.0625 2.390625 -0.0078125 2.046875 -0.15625 C 1.703125 -0.300781 1.40625 -0.5 1.15625 -0.75 C 0.90625 -1.007812 0.710938 -1.316406 0.578125 -1.671875 C 0.441406 -2.035156 0.375 -2.429688 0.375 -2.859375 C 0.375 -3.285156 0.441406 -3.675781 0.578125 -4.03125 C 0.710938 -4.394531 0.90625 -4.707031 1.15625 -4.96875 C 1.40625 -5.226562 1.703125 -5.425781 2.046875 -5.5625 C 2.390625 -5.707031 2.769531 -5.78125 3.1875 -5.78125 C 3.613281 -5.78125 4 -5.707031 4.34375 -5.5625 C 4.6875 -5.425781 4.984375 -5.226562 5.234375 -4.96875 C 5.484375 -4.707031 5.675781 -4.394531 5.8125 -4.03125 C 5.945312 -3.675781 6.015625 -3.285156 6.015625 -2.859375 Z M 5.21875 -2.859375 C 5.21875 -3.210938 5.171875 -3.523438 5.078125 -3.796875 C 4.984375 -4.078125 4.847656 -4.3125 4.671875 -4.5 C 4.492188 -4.695312 4.28125 -4.847656 4.03125 -4.953125 C 3.78125 -5.054688 3.5 -5.109375 3.1875 -5.109375 C 2.882812 -5.109375 2.609375 -5.054688 2.359375 -4.953125 C 2.109375 -4.847656 1.894531 -4.695312 1.71875 -4.5 C 1.539062 -4.3125 1.40625 -4.078125 1.3125 -3.796875 C 1.21875 -3.523438 1.171875 -3.210938 1.171875 -2.859375 C 1.171875 -2.503906 1.21875 -2.1875 1.3125 -1.90625 C 1.40625 -1.632812 1.539062 -1.398438 1.71875 -1.203125 C 1.894531 -1.015625 2.109375 -0.867188 2.359375 -0.765625 C 2.609375 -0.660156 2.882812 -0.609375 3.1875 -0.609375 C 3.5 -0.609375 3.78125 -0.660156 4.03125 -0.765625 C 4.28125 -0.867188 4.492188 -1.015625 4.671875 -1.203125 C 4.847656 -1.398438 4.984375 -1.632812 5.078125 -1.90625 C 5.171875 -2.1875 5.21875 -2.503906 5.21875 -2.859375 Z M 5.21875 -2.859375 "/></g></g></g><g fill="#6d6e71" fill-opacity="1"><g transform="translate(81.161447, 224.547519)"><g><path d="M 1.5 -5.09375 L 1.5 -3.09375 L 3.859375 -3.09375 L 3.859375 -2.453125 L 1.5 -2.453125 L 1.5 0 L 0.734375 0 L 0.734375 -5.71875 L 4.25 -5.71875 L 4.25 -5.09375 Z M 1.5 -5.09375 "/></g></g></g><g fill="#6d6e71" fill-opacity="1"><g transform="translate(88.872103, 224.547519)"><g><path d="M 4.265625 -0.625 L 4.25 0 L 0.734375 0 L 0.734375 -5.71875 L 4.25 -5.71875 L 4.25 -5.09375 L 1.5 -5.09375 L 1.5 -3.1875 L 3.734375 -3.1875 L 3.734375 -2.578125 L 1.5 -2.578125 L 1.5 -0.625 Z M 4.265625 -0.625 "/></g></g></g><g fill="#6d6e71" fill-opacity="1"><g transform="translate(96.678601, 224.547519)"><g><path d="M 3.65625 -4.828125 C 3.632812 -4.785156 3.609375 -4.753906 3.578125 -4.734375 C 3.546875 -4.710938 3.515625 -4.703125 3.484375 -4.703125 C 3.429688 -4.703125 3.375 -4.722656 3.3125 -4.765625 C 3.25 -4.816406 3.171875 -4.867188 3.078125 -4.921875 C 2.992188 -4.972656 2.882812 -5.019531 2.75 -5.0625 C 2.625 -5.113281 2.46875 -5.140625 2.28125 -5.140625 C 2.113281 -5.140625 1.960938 -5.113281 1.828125 -5.0625 C 1.691406 -5.019531 1.578125 -4.957031 1.484375 -4.875 C 1.398438 -4.800781 1.335938 -4.707031 1.296875 -4.59375 C 1.253906 -4.488281 1.234375 -4.375 1.234375 -4.25 C 1.234375 -4.09375 1.269531 -3.960938 1.34375 -3.859375 C 1.425781 -3.753906 1.53125 -3.660156 1.65625 -3.578125 C 1.789062 -3.503906 1.9375 -3.441406 2.09375 -3.390625 C 2.257812 -3.335938 2.425781 -3.28125 2.59375 -3.21875 C 2.769531 -3.164062 2.9375 -3.101562 3.09375 -3.03125 C 3.257812 -2.957031 3.40625 -2.863281 3.53125 -2.75 C 3.664062 -2.632812 3.769531 -2.492188 3.84375 -2.328125 C 3.925781 -2.171875 3.96875 -1.972656 3.96875 -1.734375 C 3.96875 -1.484375 3.925781 -1.25 3.84375 -1.03125 C 3.757812 -0.8125 3.632812 -0.617188 3.46875 -0.453125 C 3.300781 -0.296875 3.097656 -0.171875 2.859375 -0.078125 C 2.628906 0.015625 2.363281 0.0625 2.0625 0.0625 C 1.6875 0.0625 1.347656 -0.00390625 1.046875 -0.140625 C 0.742188 -0.273438 0.484375 -0.457031 0.265625 -0.6875 L 0.484375 -1.046875 C 0.503906 -1.078125 0.53125 -1.101562 0.5625 -1.125 C 0.59375 -1.144531 0.628906 -1.15625 0.671875 -1.15625 C 0.703125 -1.15625 0.738281 -1.140625 0.78125 -1.109375 C 0.820312 -1.078125 0.867188 -1.039062 0.921875 -1 C 0.984375 -0.957031 1.050781 -0.910156 1.125 -0.859375 C 1.195312 -0.816406 1.28125 -0.769531 1.375 -0.71875 C 1.46875 -0.675781 1.570312 -0.640625 1.6875 -0.609375 C 1.800781 -0.585938 1.929688 -0.578125 2.078125 -0.578125 C 2.265625 -0.578125 2.425781 -0.601562 2.5625 -0.65625 C 2.707031 -0.707031 2.828125 -0.773438 2.921875 -0.859375 C 3.023438 -0.953125 3.101562 -1.0625 3.15625 -1.1875 C 3.21875 -1.320312 3.25 -1.46875 3.25 -1.625 C 3.25 -1.800781 3.207031 -1.941406 3.125 -2.046875 C 3.050781 -2.160156 2.945312 -2.253906 2.8125 -2.328125 C 2.6875 -2.398438 2.539062 -2.460938 2.375 -2.515625 C 2.207031 -2.566406 2.039062 -2.617188 1.875 -2.671875 C 1.707031 -2.734375 1.539062 -2.796875 1.375 -2.859375 C 1.207031 -2.929688 1.0625 -3.023438 0.9375 -3.140625 C 0.8125 -3.253906 0.707031 -3.394531 0.625 -3.5625 C 0.539062 -3.738281 0.5 -3.957031 0.5 -4.21875 C 0.5 -4.414062 0.539062 -4.609375 0.625 -4.796875 C 0.707031 -4.984375 0.820312 -5.148438 0.96875 -5.296875 C 1.113281 -5.441406 1.296875 -5.554688 1.515625 -5.640625 C 1.742188 -5.734375 2 -5.78125 2.28125 -5.78125 C 2.601562 -5.78125 2.894531 -5.726562 3.15625 -5.625 C 3.414062 -5.53125 3.644531 -5.382812 3.84375 -5.1875 Z M 3.65625 -4.828125 "/></g></g></g><g fill="#6d6e71" fill-opacity="1"><g transform="translate(104.205578, 224.547519)"><g><path d="M 3.65625 -4.828125 C 3.632812 -4.785156 3.609375 -4.753906 3.578125 -4.734375 C 3.546875 -4.710938 3.515625 -4.703125 3.484375 -4.703125 C 3.429688 -4.703125 3.375 -4.722656 3.3125 -4.765625 C 3.25 -4.816406 3.171875 -4.867188 3.078125 -4.921875 C 2.992188 -4.972656 2.882812 -5.019531 2.75 -5.0625 C 2.625 -5.113281 2.46875 -5.140625 2.28125 -5.140625 C 2.113281 -5.140625 1.960938 -5.113281 1.828125 -5.0625 C 1.691406 -5.019531 1.578125 -4.957031 1.484375 -4.875 C 1.398438 -4.800781 1.335938 -4.707031 1.296875 -4.59375 C 1.253906 -4.488281 1.234375 -4.375 1.234375 -4.25 C 1.234375 -4.09375 1.269531 -3.960938 1.34375 -3.859375 C 1.425781 -3.753906 1.53125 -3.660156 1.65625 -3.578125 C 1.789062 -3.503906 1.9375 -3.441406 2.09375 -3.390625 C 2.257812 -3.335938 2.425781 -3.28125 2.59375 -3.21875 C 2.769531 -3.164062 2.9375 -3.101562 3.09375 -3.03125 C 3.257812 -2.957031 3.40625 -2.863281 3.53125 -2.75 C 3.664062 -2.632812 3.769531 -2.492188 3.84375 -2.328125 C 3.925781 -2.171875 3.96875 -1.972656 3.96875 -1.734375 C 3.96875 -1.484375 3.925781 -1.25 3.84375 -1.03125 C 3.757812 -0.8125 3.632812 -0.617188 3.46875 -0.453125 C 3.300781 -0.296875 3.097656 -0.171875 2.859375 -0.078125 C 2.628906 0.015625 2.363281 0.0625 2.0625 0.0625 C 1.6875 0.0625 1.347656 -0.00390625 1.046875 -0.140625 C 0.742188 -0.273438 0.484375 -0.457031 0.265625 -0.6875 L 0.484375 -1.046875 C 0.503906 -1.078125 0.53125 -1.101562 0.5625 -1.125 C 0.59375 -1.144531 0.628906 -1.15625 0.671875 -1.15625 C 0.703125 -1.15625 0.738281 -1.140625 0.78125 -1.109375 C 0.820312 -1.078125 0.867188 -1.039062 0.921875 -1 C 0.984375 -0.957031 1.050781 -0.910156 1.125 -0.859375 C 1.195312 -0.816406 1.28125 -0.769531 1.375 -0.71875 C 1.46875 -0.675781 1.570312 -0.640625 1.6875 -0.609375 C 1.800781 -0.585938 1.929688 -0.578125 2.078125 -0.578125 C 2.265625 -0.578125 2.425781 -0.601562 2.5625 -0.65625 C 2.707031 -0.707031 2.828125 -0.773438 2.921875 -0.859375 C 3.023438 -0.953125 3.101562 -1.0625 3.15625 -1.1875 C 3.21875 -1.320312 3.25 -1.46875 3.25 -1.625 C 3.25 -1.800781 3.207031 -1.941406 3.125 -2.046875 C 3.050781 -2.160156 2.945312 -2.253906 2.8125 -2.328125 C 2.6875 -2.398438 2.539062 -2.460938 2.375 -2.515625 C 2.207031 -2.566406 2.039062 -2.617188 1.875 -2.671875 C 1.707031 -2.734375 1.539062 -2.796875 1.375 -2.859375 C 1.207031 -2.929688 1.0625 -3.023438 0.9375 -3.140625 C 0.8125 -3.253906 0.707031 -3.394531 0.625 -3.5625 C 0.539062 -3.738281 0.5 -3.957031 0.5 -4.21875 C 0.5 -4.414062 0.539062 -4.609375 0.625 -4.796875 C 0.707031 -4.984375 0.820312 -5.148438 0.96875 -5.296875 C 1.113281 -5.441406 1.296875 -5.554688 1.515625 -5.640625 C 1.742188 -5.734375 2 -5.78125 2.28125 -5.78125 C 2.601562 -5.78125 2.894531 -5.726562 3.15625 -5.625 C 3.414062 -5.53125 3.644531 -5.382812 3.84375 -5.1875 Z M 3.65625 -4.828125 "/></g></g></g><g fill="#6d6e71" fill-opacity="1"><g transform="translate(111.732555, 224.547519)"><g><path d="M 1.5 0 L 0.734375 0 L 0.734375 -5.71875 L 1.5 -5.71875 Z M 1.5 0 "/></g></g></g><g fill="#6d6e71" fill-opacity="1"><g transform="translate(117.163161, 224.547519)"><g><path d="M 6.015625 -2.859375 C 6.015625 -2.429688 5.945312 -2.035156 5.8125 -1.671875 C 5.675781 -1.316406 5.484375 -1.007812 5.234375 -0.75 C 4.984375 -0.5 4.6875 -0.300781 4.34375 -0.15625 C 4 -0.0078125 3.613281 0.0625 3.1875 0.0625 C 2.769531 0.0625 2.390625 -0.0078125 2.046875 -0.15625 C 1.703125 -0.300781 1.40625 -0.5 1.15625 -0.75 C 0.90625 -1.007812 0.710938 -1.316406 0.578125 -1.671875 C 0.441406 -2.035156 0.375 -2.429688 0.375 -2.859375 C 0.375 -3.285156 0.441406 -3.675781 0.578125 -4.03125 C 0.710938 -4.394531 0.90625 -4.707031 1.15625 -4.96875 C 1.40625 -5.226562 1.703125 -5.425781 2.046875 -5.5625 C 2.390625 -5.707031 2.769531 -5.78125 3.1875 -5.78125 C 3.613281 -5.78125 4 -5.707031 4.34375 -5.5625 C 4.6875 -5.425781 4.984375 -5.226562 5.234375 -4.96875 C 5.484375 -4.707031 5.675781 -4.394531 5.8125 -4.03125 C 5.945312 -3.675781 6.015625 -3.285156 6.015625 -2.859375 Z M 5.21875 -2.859375 C 5.21875 -3.210938 5.171875 -3.523438 5.078125 -3.796875 C 4.984375 -4.078125 4.847656 -4.3125 4.671875 -4.5 C 4.492188 -4.695312 4.28125 -4.847656 4.03125 -4.953125 C 3.78125 -5.054688 3.5 -5.109375 3.1875 -5.109375 C 2.882812 -5.109375 2.609375 -5.054688 2.359375 -4.953125 C 2.109375 -4.847656 1.894531 -4.695312 1.71875 -4.5 C 1.539062 -4.3125 1.40625 -4.078125 1.3125 -3.796875 C 1.21875 -3.523438 1.171875 -3.210938 1.171875 -2.859375 C 1.171875 -2.503906 1.21875 -2.1875 1.3125 -1.90625 C 1.40625 -1.632812 1.539062 -1.398438 1.71875 -1.203125 C 1.894531 -1.015625 2.109375 -0.867188 2.359375 -0.765625 C 2.609375 -0.660156 2.882812 -0.609375 3.1875 -0.609375 C 3.5 -0.609375 3.78125 -0.660156 4.03125 -0.765625 C 4.28125 -0.867188 4.492188 -1.015625 4.671875 -1.203125 C 4.847656 -1.398438 4.984375 -1.632812 5.078125 -1.90625 C 5.171875 -2.1875 5.21875 -2.503906 5.21875 -2.859375 Z M 5.21875 -2.859375 "/></g></g></g><g fill="#6d6e71" fill-opacity="1"><g transform="translate(126.75058, 224.547519)"><g><path d="M 5.359375 -5.71875 L 5.359375 0 L 4.984375 0 C 4.921875 0 4.867188 -0.0078125 4.828125 -0.03125 C 4.785156 -0.0507812 4.742188 -0.0859375 4.703125 -0.140625 L 1.390625 -4.453125 C 1.398438 -4.378906 1.40625 -4.3125 1.40625 -4.25 C 1.40625 -4.1875 1.40625 -4.128906 1.40625 -4.078125 L 1.40625 0 L 0.734375 0 L 0.734375 -5.71875 L 1.125 -5.71875 C 1.164062 -5.71875 1.195312 -5.710938 1.21875 -5.703125 C 1.238281 -5.703125 1.257812 -5.695312 1.28125 -5.6875 C 1.300781 -5.6875 1.316406 -5.675781 1.328125 -5.65625 C 1.347656 -5.632812 1.367188 -5.613281 1.390625 -5.59375 L 4.703125 -1.28125 C 4.703125 -1.351562 4.695312 -1.421875 4.6875 -1.484375 C 4.6875 -1.546875 4.6875 -1.609375 4.6875 -1.671875 L 4.6875 -5.71875 Z M 5.359375 -5.71875 "/></g></g></g><g fill="#6d6e71" fill-opacity="1"><g transform="translate(136.042512, 224.547519)"><g><path d="M 3.765625 -2.125 L 2.875 -4.453125 C 2.84375 -4.523438 2.8125 -4.601562 2.78125 -4.6875 C 2.757812 -4.78125 2.734375 -4.878906 2.703125 -4.984375 C 2.648438 -4.765625 2.59375 -4.585938 2.53125 -4.453125 L 1.625 -2.125 Z M 5.375 0 L 4.78125 0 C 4.707031 0 4.648438 -0.015625 4.609375 -0.046875 C 4.566406 -0.0859375 4.535156 -0.132812 4.515625 -0.1875 L 3.984375 -1.5625 L 1.421875 -1.5625 L 0.875 -0.1875 C 0.863281 -0.132812 0.832031 -0.0859375 0.78125 -0.046875 C 0.738281 -0.015625 0.6875 0 0.625 0 L 0.03125 0 L 2.3125 -5.71875 L 3.09375 -5.71875 Z M 5.375 0 "/></g></g></g><g fill="#6d6e71" fill-opacity="1"><g transform="translate(144.643635, 224.547519)"><g><path d="M 3.96875 -0.65625 L 3.96875 0 L 0.734375 0 L 0.734375 -5.71875 L 1.5 -5.71875 L 1.5 -0.65625 Z M 3.96875 -0.65625 "/></g></g></g><g fill="#6d6e71" fill-opacity="1"><g transform="translate(151.939019, 224.547519)"><g/></g></g><g fill="#6d6e71" fill-opacity="1"><g transform="translate(157.177951, 224.547519)"><g><path d="M 5.359375 -5.71875 L 5.359375 0 L 4.59375 0 L 4.59375 -2.609375 L 1.5 -2.609375 L 1.5 0 L 0.734375 0 L 0.734375 -5.71875 L 1.5 -5.71875 L 1.5 -3.171875 L 4.59375 -3.171875 L 4.59375 -5.71875 Z M 5.359375 -5.71875 "/></g></g></g><g fill="#6d6e71" fill-opacity="1"><g transform="translate(166.469883, 224.547519)"><g><path d="M 4.265625 -0.625 L 4.25 0 L 0.734375 0 L 0.734375 -5.71875 L 4.25 -5.71875 L 4.25 -5.09375 L 1.5 -5.09375 L 1.5 -3.1875 L 3.734375 -3.1875 L 3.734375 -2.578125 L 1.5 -2.578125 L 1.5 -0.625 Z M 4.265625 -0.625 "/></g></g></g><g fill="#6d6e71" fill-opacity="1"><g transform="translate(174.276384, 224.547519)"><g><path d="M 3.765625 -2.125 L 2.875 -4.453125 C 2.84375 -4.523438 2.8125 -4.601562 2.78125 -4.6875 C 2.757812 -4.78125 2.734375 -4.878906 2.703125 -4.984375 C 2.648438 -4.765625 2.59375 -4.585938 2.53125 -4.453125 L 1.625 -2.125 Z M 5.375 0 L 4.78125 0 C 4.707031 0 4.648438 -0.015625 4.609375 -0.046875 C 4.566406 -0.0859375 4.535156 -0.132812 4.515625 -0.1875 L 3.984375 -1.5625 L 1.421875 -1.5625 L 0.875 -0.1875 C 0.863281 -0.132812 0.832031 -0.0859375 0.78125 -0.046875 C 0.738281 -0.015625 0.6875 0 0.625 0 L 0.03125 0 L 2.3125 -5.71875 L 3.09375 -5.71875 Z M 5.375 0 "/></g></g></g><g fill="#6d6e71" fill-opacity="1"><g transform="translate(182.877507, 224.547519)"><g><path d="M 4.59375 -5.0625 L 2.75 -5.0625 L 2.75 0 L 1.96875 0 L 1.96875 -5.0625 L 0.125 -5.0625 L 0.125 -5.71875 L 4.59375 -5.71875 Z M 4.59375 -5.0625 "/></g></g></g><g fill="#6d6e71" fill-opacity="1"><g transform="translate(190.787822, 224.547519)"><g><path d="M 1.5 0 L 0.734375 0 L 0.734375 -5.71875 L 1.5 -5.71875 Z M 1.5 0 "/></g></g></g><g fill="#6d6e71" fill-opacity="1"><g transform="translate(196.218428, 224.547519)"><g><path d="M 5.359375 -5.71875 L 5.359375 0 L 4.984375 0 C 4.921875 0 4.867188 -0.0078125 4.828125 -0.03125 C 4.785156 -0.0507812 4.742188 -0.0859375 4.703125 -0.140625 L 1.390625 -4.453125 C 1.398438 -4.378906 1.40625 -4.3125 1.40625 -4.25 C 1.40625 -4.1875 1.40625 -4.128906 1.40625 -4.078125 L 1.40625 0 L 0.734375 0 L 0.734375 -5.71875 L 1.125 -5.71875 C 1.164062 -5.71875 1.195312 -5.710938 1.21875 -5.703125 C 1.238281 -5.703125 1.257812 -5.695312 1.28125 -5.6875 C 1.300781 -5.6875 1.316406 -5.675781 1.328125 -5.65625 C 1.347656 -5.632812 1.367188 -5.613281 1.390625 -5.59375 L 4.703125 -1.28125 C 4.703125 -1.351562 4.695312 -1.421875 4.6875 -1.484375 C 4.6875 -1.546875 4.6875 -1.609375 4.6875 -1.671875 L 4.6875 -5.71875 Z M 5.359375 -5.71875 "/></g></g></g><g fill="#6d6e71" fill-opacity="1"><g transform="translate(205.510359, 224.547519)"><g><path d="M 5.375 -2.75 L 5.375 -0.5625 C 5.09375 -0.351562 4.785156 -0.195312 4.453125 -0.09375 C 4.128906 0.0078125 3.773438 0.0625 3.390625 0.0625 C 2.921875 0.0625 2.5 -0.00390625 2.125 -0.140625 C 1.757812 -0.285156 1.445312 -0.488281 1.1875 -0.75 C 0.925781 -1.007812 0.722656 -1.316406 0.578125 -1.671875 C 0.441406 -2.035156 0.375 -2.429688 0.375 -2.859375 C 0.375 -3.296875 0.441406 -3.691406 0.578125 -4.046875 C 0.710938 -4.410156 0.90625 -4.71875 1.15625 -4.96875 C 1.414062 -5.226562 1.722656 -5.425781 2.078125 -5.5625 C 2.441406 -5.707031 2.847656 -5.78125 3.296875 -5.78125 C 3.523438 -5.78125 3.734375 -5.765625 3.921875 -5.734375 C 4.117188 -5.703125 4.300781 -5.65625 4.46875 -5.59375 C 4.632812 -5.53125 4.785156 -5.453125 4.921875 -5.359375 C 5.066406 -5.273438 5.203125 -5.175781 5.328125 -5.0625 L 5.109375 -4.703125 C 5.066406 -4.648438 5.019531 -4.617188 4.96875 -4.609375 C 4.914062 -4.597656 4.859375 -4.609375 4.796875 -4.640625 C 4.722656 -4.679688 4.644531 -4.726562 4.5625 -4.78125 C 4.488281 -4.832031 4.390625 -4.882812 4.265625 -4.9375 C 4.148438 -4.988281 4.007812 -5.03125 3.84375 -5.0625 C 3.6875 -5.09375 3.5 -5.109375 3.28125 -5.109375 C 2.957031 -5.109375 2.664062 -5.054688 2.40625 -4.953125 C 2.144531 -4.847656 1.921875 -4.695312 1.734375 -4.5 C 1.554688 -4.3125 1.414062 -4.078125 1.3125 -3.796875 C 1.21875 -3.515625 1.171875 -3.203125 1.171875 -2.859375 C 1.171875 -2.492188 1.21875 -2.171875 1.3125 -1.890625 C 1.414062 -1.609375 1.5625 -1.367188 1.75 -1.171875 C 1.945312 -0.972656 2.179688 -0.820312 2.453125 -0.71875 C 2.722656 -0.613281 3.023438 -0.5625 3.359375 -0.5625 C 3.628906 -0.5625 3.867188 -0.59375 4.078125 -0.65625 C 4.285156 -0.71875 4.484375 -0.800781 4.671875 -0.90625 L 4.671875 -2.15625 L 3.78125 -2.15625 C 3.738281 -2.15625 3.703125 -2.171875 3.671875 -2.203125 C 3.640625 -2.234375 3.625 -2.269531 3.625 -2.3125 L 3.625 -2.75 Z M 5.375 -2.75 "/></g></g></g><g fill="#6d6e71" fill-opacity="1"><g transform="translate(214.538751, 224.547519)"><g/></g></g><g fill="#6d6e71" fill-opacity="1"><g transform="translate(219.777683, 224.547519)"><g><path d="M 1.921875 -2.8125 C 1.640625 -2.664062 1.425781 -2.484375 1.28125 -2.265625 C 1.144531 -2.054688 1.078125 -1.828125 1.078125 -1.578125 C 1.078125 -1.410156 1.109375 -1.257812 1.171875 -1.125 C 1.234375 -0.988281 1.316406 -0.875 1.421875 -0.78125 C 1.523438 -0.695312 1.644531 -0.628906 1.78125 -0.578125 C 1.914062 -0.535156 2.050781 -0.515625 2.1875 -0.515625 C 2.488281 -0.515625 2.753906 -0.566406 2.984375 -0.671875 C 3.222656 -0.785156 3.429688 -0.9375 3.609375 -1.125 Z M 5.609375 0 L 4.921875 0 C 4.847656 0 4.785156 -0.0078125 4.734375 -0.03125 C 4.691406 -0.0507812 4.640625 -0.0859375 4.578125 -0.140625 L 4 -0.71875 C 3.75 -0.476562 3.460938 -0.285156 3.140625 -0.140625 C 2.816406 -0.00390625 2.457031 0.0625 2.0625 0.0625 C 1.851562 0.0625 1.644531 0.0234375 1.4375 -0.046875 C 1.238281 -0.117188 1.054688 -0.222656 0.890625 -0.359375 C 0.722656 -0.492188 0.585938 -0.660156 0.484375 -0.859375 C 0.390625 -1.054688 0.34375 -1.28125 0.34375 -1.53125 C 0.34375 -1.707031 0.375 -1.878906 0.4375 -2.046875 C 0.5 -2.210938 0.585938 -2.367188 0.703125 -2.515625 C 0.816406 -2.660156 0.945312 -2.785156 1.09375 -2.890625 C 1.25 -3.003906 1.414062 -3.101562 1.59375 -3.1875 C 1.4375 -3.394531 1.316406 -3.59375 1.234375 -3.78125 C 1.160156 -3.976562 1.125 -4.179688 1.125 -4.390625 C 1.125 -4.578125 1.160156 -4.753906 1.234375 -4.921875 C 1.304688 -5.097656 1.40625 -5.25 1.53125 -5.375 C 1.664062 -5.5 1.828125 -5.597656 2.015625 -5.671875 C 2.210938 -5.742188 2.425781 -5.78125 2.65625 -5.78125 C 2.875 -5.78125 3.066406 -5.742188 3.234375 -5.671875 C 3.410156 -5.609375 3.5625 -5.519531 3.6875 -5.40625 C 3.8125 -5.300781 3.910156 -5.171875 3.984375 -5.015625 C 4.054688 -4.867188 4.097656 -4.71875 4.109375 -4.5625 L 3.671875 -4.46875 C 3.578125 -4.445312 3.507812 -4.488281 3.46875 -4.59375 C 3.445312 -4.664062 3.414062 -4.738281 3.375 -4.8125 C 3.332031 -4.882812 3.28125 -4.953125 3.21875 -5.015625 C 3.15625 -5.078125 3.078125 -5.128906 2.984375 -5.171875 C 2.890625 -5.210938 2.78125 -5.234375 2.65625 -5.234375 C 2.53125 -5.234375 2.410156 -5.210938 2.296875 -5.171875 C 2.191406 -5.128906 2.097656 -5.066406 2.015625 -4.984375 C 1.941406 -4.910156 1.882812 -4.820312 1.84375 -4.71875 C 1.8125 -4.613281 1.796875 -4.503906 1.796875 -4.390625 C 1.796875 -4.296875 1.804688 -4.203125 1.828125 -4.109375 C 1.847656 -4.023438 1.878906 -3.941406 1.921875 -3.859375 C 1.972656 -3.773438 2.035156 -3.6875 2.109375 -3.59375 C 2.179688 -3.5 2.265625 -3.40625 2.359375 -3.3125 L 4.015625 -1.625 C 4.109375 -1.8125 4.1875 -2 4.25 -2.1875 C 4.3125 -2.382812 4.351562 -2.582031 4.375 -2.78125 C 4.375 -2.832031 4.382812 -2.875 4.40625 -2.90625 C 4.4375 -2.9375 4.476562 -2.953125 4.53125 -2.953125 L 4.96875 -2.953125 C 4.96875 -2.640625 4.921875 -2.335938 4.828125 -2.046875 C 4.734375 -1.753906 4.597656 -1.476562 4.421875 -1.21875 Z M 5.609375 0 "/></g></g></g><g fill="#6d6e71" fill-opacity="1"><g transform="translate(228.65832, 224.547519)"><g/></g></g><g fill="#6d6e71" fill-opacity="1"><g transform="translate(233.897242, 224.547519)"><g><path d="M 3.765625 -2.125 L 2.875 -4.453125 C 2.84375 -4.523438 2.8125 -4.601562 2.78125 -4.6875 C 2.757812 -4.78125 2.734375 -4.878906 2.703125 -4.984375 C 2.648438 -4.765625 2.59375 -4.585938 2.53125 -4.453125 L 1.625 -2.125 Z M 5.375 0 L 4.78125 0 C 4.707031 0 4.648438 -0.015625 4.609375 -0.046875 C 4.566406 -0.0859375 4.535156 -0.132812 4.515625 -0.1875 L 3.984375 -1.5625 L 1.421875 -1.5625 L 0.875 -0.1875 C 0.863281 -0.132812 0.832031 -0.0859375 0.78125 -0.046875 C 0.738281 -0.015625 0.6875 0 0.625 0 L 0.03125 0 L 2.3125 -5.71875 L 3.09375 -5.71875 Z M 5.375 0 "/></g></g></g><g fill="#6d6e71" fill-opacity="1"><g transform="translate(242.498355, 224.547519)"><g><path d="M 1.5 0 L 0.734375 0 L 0.734375 -5.71875 L 1.5 -5.71875 Z M 1.5 0 "/></g></g></g><g fill="#6d6e71" fill-opacity="1"><g transform="translate(247.928961, 224.547519)"><g><path d="M 2.3125 -2.953125 C 2.539062 -2.953125 2.738281 -2.976562 2.90625 -3.03125 C 3.082031 -3.082031 3.226562 -3.15625 3.34375 -3.25 C 3.457031 -3.351562 3.539062 -3.472656 3.59375 -3.609375 C 3.65625 -3.753906 3.6875 -3.910156 3.6875 -4.078125 C 3.6875 -4.421875 3.570312 -4.675781 3.34375 -4.84375 C 3.125 -5.019531 2.789062 -5.109375 2.34375 -5.109375 L 1.5 -5.109375 L 1.5 -2.953125 Z M 4.953125 0 L 4.265625 0 C 4.128906 0 4.023438 -0.0507812 3.953125 -0.15625 L 2.46875 -2.203125 C 2.425781 -2.265625 2.378906 -2.3125 2.328125 -2.34375 C 2.273438 -2.375 2.195312 -2.390625 2.09375 -2.390625 L 1.5 -2.390625 L 1.5 0 L 0.734375 0 L 0.734375 -5.71875 L 2.34375 -5.71875 C 2.707031 -5.71875 3.019531 -5.679688 3.28125 -5.609375 C 3.550781 -5.535156 3.769531 -5.425781 3.9375 -5.28125 C 4.113281 -5.144531 4.238281 -4.976562 4.3125 -4.78125 C 4.394531 -4.59375 4.4375 -4.378906 4.4375 -4.140625 C 4.4375 -3.929688 4.40625 -3.738281 4.34375 -3.5625 C 4.28125 -3.394531 4.1875 -3.238281 4.0625 -3.09375 C 3.945312 -2.957031 3.800781 -2.835938 3.625 -2.734375 C 3.445312 -2.640625 3.25 -2.566406 3.03125 -2.515625 C 3.132812 -2.460938 3.222656 -2.378906 3.296875 -2.265625 Z M 4.953125 0 "/></g></g></g><g fill="#6d6e71" fill-opacity="1"><g transform="translate(256.126781, 224.547519)"><g/></g></g><g fill="#6d6e71" fill-opacity="1"><g transform="translate(261.365703, 224.547519)"><g><path d="M 3.65625 -4.828125 C 3.632812 -4.785156 3.609375 -4.753906 3.578125 -4.734375 C 3.546875 -4.710938 3.515625 -4.703125 3.484375 -4.703125 C 3.429688 -4.703125 3.375 -4.722656 3.3125 -4.765625 C 3.25 -4.816406 3.171875 -4.867188 3.078125 -4.921875 C 2.992188 -4.972656 2.882812 -5.019531 2.75 -5.0625 C 2.625 -5.113281 2.46875 -5.140625 2.28125 -5.140625 C 2.113281 -5.140625 1.960938 -5.113281 1.828125 -5.0625 C 1.691406 -5.019531 1.578125 -4.957031 1.484375 -4.875 C 1.398438 -4.800781 1.335938 -4.707031 1.296875 -4.59375 C 1.253906 -4.488281 1.234375 -4.375 1.234375 -4.25 C 1.234375 -4.09375 1.269531 -3.960938 1.34375 -3.859375 C 1.425781 -3.753906 1.53125 -3.660156 1.65625 -3.578125 C 1.789062 -3.503906 1.9375 -3.441406 2.09375 -3.390625 C 2.257812 -3.335938 2.425781 -3.28125 2.59375 -3.21875 C 2.769531 -3.164062 2.9375 -3.101562 3.09375 -3.03125 C 3.257812 -2.957031 3.40625 -2.863281 3.53125 -2.75 C 3.664062 -2.632812 3.769531 -2.492188 3.84375 -2.328125 C 3.925781 -2.171875 3.96875 -1.972656 3.96875 -1.734375 C 3.96875 -1.484375 3.925781 -1.25 3.84375 -1.03125 C 3.757812 -0.8125 3.632812 -0.617188 3.46875 -0.453125 C 3.300781 -0.296875 3.097656 -0.171875 2.859375 -0.078125 C 2.628906 0.015625 2.363281 0.0625 2.0625 0.0625 C 1.6875 0.0625 1.347656 -0.00390625 1.046875 -0.140625 C 0.742188 -0.273438 0.484375 -0.457031 0.265625 -0.6875 L 0.484375 -1.046875 C 0.503906 -1.078125 0.53125 -1.101562 0.5625 -1.125 C 0.59375 -1.144531 0.628906 -1.15625 0.671875 -1.15625 C 0.703125 -1.15625 0.738281 -1.140625 0.78125 -1.109375 C 0.820312 -1.078125 0.867188 -1.039062 0.921875 -1 C 0.984375 -0.957031 1.050781 -0.910156 1.125 -0.859375 C 1.195312 -0.816406 1.28125 -0.769531 1.375 -0.71875 C 1.46875 -0.675781 1.570312 -0.640625 1.6875 -0.609375 C 1.800781 -0.585938 1.929688 -0.578125 2.078125 -0.578125 C 2.265625 -0.578125 2.425781 -0.601562 2.5625 -0.65625 C 2.707031 -0.707031 2.828125 -0.773438 2.921875 -0.859375 C 3.023438 -0.953125 3.101562 -1.0625 3.15625 -1.1875 C 3.21875 -1.320312 3.25 -1.46875 3.25 -1.625 C 3.25 -1.800781 3.207031 -1.941406 3.125 -2.046875 C 3.050781 -2.160156 2.945312 -2.253906 2.8125 -2.328125 C 2.6875 -2.398438 2.539062 -2.460938 2.375 -2.515625 C 2.207031 -2.566406 2.039062 -2.617188 1.875 -2.671875 C 1.707031 -2.734375 1.539062 -2.796875 1.375 -2.859375 C 1.207031 -2.929688 1.0625 -3.023438 0.9375 -3.140625 C 0.8125 -3.253906 0.707031 -3.394531 0.625 -3.5625 C 0.539062 -3.738281 0.5 -3.957031 0.5 -4.21875 C 0.5 -4.414062 0.539062 -4.609375 0.625 -4.796875 C 0.707031 -4.984375 0.820312 -5.148438 0.96875 -5.296875 C 1.113281 -5.441406 1.296875 -5.554688 1.515625 -5.640625 C 1.742188 -5.734375 2 -5.78125 2.28125 -5.78125 C 2.601562 -5.78125 2.894531 -5.726562 3.15625 -5.625 C 3.414062 -5.53125 3.644531 -5.382812 3.84375 -5.1875 Z M 3.65625 -4.828125 "/></g></g></g><g fill="#6d6e71" fill-opacity="1"><g transform="translate(268.89267, 224.547519)"><g><path d="M 4.265625 -0.625 L 4.25 0 L 0.734375 0 L 0.734375 -5.71875 L 4.25 -5.71875 L 4.25 -5.09375 L 1.5 -5.09375 L 1.5 -3.1875 L 3.734375 -3.1875 L 3.734375 -2.578125 L 1.5 -2.578125 L 1.5 -0.625 Z M 4.265625 -0.625 "/></g></g></g><g fill="#6d6e71" fill-opacity="1"><g transform="translate(276.69916, 224.547519)"><g><path d="M 2.3125 -2.953125 C 2.539062 -2.953125 2.738281 -2.976562 2.90625 -3.03125 C 3.082031 -3.082031 3.226562 -3.15625 3.34375 -3.25 C 3.457031 -3.351562 3.539062 -3.472656 3.59375 -3.609375 C 3.65625 -3.753906 3.6875 -3.910156 3.6875 -4.078125 C 3.6875 -4.421875 3.570312 -4.675781 3.34375 -4.84375 C 3.125 -5.019531 2.789062 -5.109375 2.34375 -5.109375 L 1.5 -5.109375 L 1.5 -2.953125 Z M 4.953125 0 L 4.265625 0 C 4.128906 0 4.023438 -0.0507812 3.953125 -0.15625 L 2.46875 -2.203125 C 2.425781 -2.265625 2.378906 -2.3125 2.328125 -2.34375 C 2.273438 -2.375 2.195312 -2.390625 2.09375 -2.390625 L 1.5 -2.390625 L 1.5 0 L 0.734375 0 L 0.734375 -5.71875 L 2.34375 -5.71875 C 2.707031 -5.71875 3.019531 -5.679688 3.28125 -5.609375 C 3.550781 -5.535156 3.769531 -5.425781 3.9375 -5.28125 C 4.113281 -5.144531 4.238281 -4.976562 4.3125 -4.78125 C 4.394531 -4.59375 4.4375 -4.378906 4.4375 -4.140625 C 4.4375 -3.929688 4.40625 -3.738281 4.34375 -3.5625 C 4.28125 -3.394531 4.1875 -3.238281 4.0625 -3.09375 C 3.945312 -2.957031 3.800781 -2.835938 3.625 -2.734375 C 3.445312 -2.640625 3.25 -2.566406 3.03125 -2.515625 C 3.132812 -2.460938 3.222656 -2.378906 3.296875 -2.265625 Z M 4.953125 0 "/></g></g></g><g fill="#6d6e71" fill-opacity="1"><g transform="translate(284.896981, 224.547519)"><g><path d="M 5.375 -5.71875 L 3.046875 0 L 2.359375 0 L 0.03125 -5.71875 L 0.640625 -5.71875 C 0.710938 -5.71875 0.769531 -5.695312 0.8125 -5.65625 C 0.851562 -5.625 0.882812 -5.582031 0.90625 -5.53125 L 2.515625 -1.5 C 2.554688 -1.40625 2.59375 -1.304688 2.625 -1.203125 C 2.65625 -1.097656 2.679688 -0.988281 2.703125 -0.875 C 2.734375 -0.988281 2.765625 -1.097656 2.796875 -1.203125 C 2.828125 -1.304688 2.859375 -1.40625 2.890625 -1.5 L 4.5 -5.53125 C 4.507812 -5.582031 4.535156 -5.625 4.578125 -5.65625 C 4.628906 -5.695312 4.691406 -5.71875 4.765625 -5.71875 Z M 5.375 -5.71875 "/></g></g></g><g fill="#6d6e71" fill-opacity="1"><g transform="translate(293.498094, 224.547519)"><g><path d="M 1.5 0 L 0.734375 0 L 0.734375 -5.71875 L 1.5 -5.71875 Z M 1.5 0 "/></g></g></g><g fill="#6d6e71" fill-opacity="1"><g transform="translate(298.9287, 224.547519)"><g><path d="M 4.75 -1.1875 C 4.789062 -1.1875 4.828125 -1.164062 4.859375 -1.125 L 5.171875 -0.796875 C 4.929688 -0.523438 4.644531 -0.3125 4.3125 -0.15625 C 3.976562 -0.0078125 3.578125 0.0625 3.109375 0.0625 C 2.691406 0.0625 2.316406 -0.00390625 1.984375 -0.140625 C 1.648438 -0.285156 1.363281 -0.488281 1.125 -0.75 C 0.882812 -1.007812 0.695312 -1.316406 0.5625 -1.671875 C 0.4375 -2.035156 0.375 -2.429688 0.375 -2.859375 C 0.375 -3.285156 0.441406 -3.675781 0.578125 -4.03125 C 0.710938 -4.394531 0.90625 -4.707031 1.15625 -4.96875 C 1.40625 -5.226562 1.703125 -5.425781 2.046875 -5.5625 C 2.390625 -5.707031 2.765625 -5.78125 3.171875 -5.78125 C 3.578125 -5.78125 3.9375 -5.710938 4.25 -5.578125 C 4.5625 -5.453125 4.835938 -5.28125 5.078125 -5.0625 L 4.828125 -4.703125 C 4.804688 -4.671875 4.78125 -4.644531 4.75 -4.625 C 4.726562 -4.613281 4.695312 -4.609375 4.65625 -4.609375 C 4.613281 -4.609375 4.554688 -4.632812 4.484375 -4.6875 C 4.410156 -4.738281 4.316406 -4.796875 4.203125 -4.859375 C 4.097656 -4.921875 3.960938 -4.976562 3.796875 -5.03125 C 3.628906 -5.082031 3.421875 -5.109375 3.171875 -5.109375 C 2.878906 -5.109375 2.609375 -5.054688 2.359375 -4.953125 C 2.117188 -4.859375 1.910156 -4.710938 1.734375 -4.515625 C 1.554688 -4.316406 1.414062 -4.078125 1.3125 -3.796875 C 1.21875 -3.523438 1.171875 -3.210938 1.171875 -2.859375 C 1.171875 -2.503906 1.222656 -2.1875 1.328125 -1.90625 C 1.429688 -1.625 1.570312 -1.382812 1.75 -1.1875 C 1.925781 -1 2.132812 -0.851562 2.375 -0.75 C 2.613281 -0.65625 2.875 -0.609375 3.15625 -0.609375 C 3.320312 -0.609375 3.472656 -0.613281 3.609375 -0.625 C 3.742188 -0.644531 3.867188 -0.675781 3.984375 -0.71875 C 4.097656 -0.769531 4.207031 -0.828125 4.3125 -0.890625 C 4.414062 -0.953125 4.515625 -1.03125 4.609375 -1.125 C 4.648438 -1.164062 4.695312 -1.1875 4.75 -1.1875 Z M 4.75 -1.1875 "/></g></g></g><g fill="#6d6e71" fill-opacity="1"><g transform="translate(307.457937, 224.547519)"><g><path d="M 4.265625 -0.625 L 4.25 0 L 0.734375 0 L 0.734375 -5.71875 L 4.25 -5.71875 L 4.25 -5.09375 L 1.5 -5.09375 L 1.5 -3.1875 L 3.734375 -3.1875 L 3.734375 -2.578125 L 1.5 -2.578125 L 1.5 -0.625 Z M 4.265625 -0.625 "/></g></g></g><g fill="#6d6e71" fill-opacity="1"><g transform="translate(315.264428, 224.547519)"><g><path d="M 3.65625 -4.828125 C 3.632812 -4.785156 3.609375 -4.753906 3.578125 -4.734375 C 3.546875 -4.710938 3.515625 -4.703125 3.484375 -4.703125 C 3.429688 -4.703125 3.375 -4.722656 3.3125 -4.765625 C 3.25 -4.816406 3.171875 -4.867188 3.078125 -4.921875 C 2.992188 -4.972656 2.882812 -5.019531 2.75 -5.0625 C 2.625 -5.113281 2.46875 -5.140625 2.28125 -5.140625 C 2.113281 -5.140625 1.960938 -5.113281 1.828125 -5.0625 C 1.691406 -5.019531 1.578125 -4.957031 1.484375 -4.875 C 1.398438 -4.800781 1.335938 -4.707031 1.296875 -4.59375 C 1.253906 -4.488281 1.234375 -4.375 1.234375 -4.25 C 1.234375 -4.09375 1.269531 -3.960938 1.34375 -3.859375 C 1.425781 -3.753906 1.53125 -3.660156 1.65625 -3.578125 C 1.789062 -3.503906 1.9375 -3.441406 2.09375 -3.390625 C 2.257812 -3.335938 2.425781 -3.28125 2.59375 -3.21875 C 2.769531 -3.164062 2.9375 -3.101562 3.09375 -3.03125 C 3.257812 -2.957031 3.40625 -2.863281 3.53125 -2.75 C 3.664062 -2.632812 3.769531 -2.492188 3.84375 -2.328125 C 3.925781 -2.171875 3.96875 -1.972656 3.96875 -1.734375 C 3.96875 -1.484375 3.925781 -1.25 3.84375 -1.03125 C 3.757812 -0.8125 3.632812 -0.617188 3.46875 -0.453125 C 3.300781 -0.296875 3.097656 -0.171875 2.859375 -0.078125 C 2.628906 0.015625 2.363281 0.0625 2.0625 0.0625 C 1.6875 0.0625 1.347656 -0.00390625 1.046875 -0.140625 C 0.742188 -0.273438 0.484375 -0.457031 0.265625 -0.6875 L 0.484375 -1.046875 C 0.503906 -1.078125 0.53125 -1.101562 0.5625 -1.125 C 0.59375 -1.144531 0.628906 -1.15625 0.671875 -1.15625 C 0.703125 -1.15625 0.738281 -1.140625 0.78125 -1.109375 C 0.820312 -1.078125 0.867188 -1.039062 0.921875 -1 C 0.984375 -0.957031 1.050781 -0.910156 1.125 -0.859375 C 1.195312 -0.816406 1.28125 -0.769531 1.375 -0.71875 C 1.46875 -0.675781 1.570312 -0.640625 1.6875 -0.609375 C 1.800781 -0.585938 1.929688 -0.578125 2.078125 -0.578125 C 2.265625 -0.578125 2.425781 -0.601562 2.5625 -0.65625 C 2.707031 -0.707031 2.828125 -0.773438 2.921875 -0.859375 C 3.023438 -0.953125 3.101562 -1.0625 3.15625 -1.1875 C 3.21875 -1.320312 3.25 -1.46875 3.25 -1.625 C 3.25 -1.800781 3.207031 -1.941406 3.125 -2.046875 C 3.050781 -2.160156 2.945312 -2.253906 2.8125 -2.328125 C 2.6875 -2.398438 2.539062 -2.460938 2.375 -2.515625 C 2.207031 -2.566406 2.039062 -2.617188 1.875 -2.671875 C 1.707031 -2.734375 1.539062 -2.796875 1.375 -2.859375 C 1.207031 -2.929688 1.0625 -3.023438 0.9375 -3.140625 C 0.8125 -3.253906 0.707031 -3.394531 0.625 -3.5625 C 0.539062 -3.738281 0.5 -3.957031 0.5 -4.21875 C 0.5 -4.414062 0.539062 -4.609375 0.625 -4.796875 C 0.707031 -4.984375 0.820312 -5.148438 0.96875 -5.296875 C 1.113281 -5.441406 1.296875 -5.554688 1.515625 -5.640625 C 1.742188 -5.734375 2 -5.78125 2.28125 -5.78125 C 2.601562 -5.78125 2.894531 -5.726562 3.15625 -5.625 C 3.414062 -5.53125 3.644531 -5.382812 3.84375 -5.1875 Z M 3.65625 -4.828125 "/></g></g></g><path stroke-linecap="round" transform="matrix(0.75, 0, 0, 0.75, 49.626796, 204.81573)" fill="none" stroke-linejoin="miter" d="M 0.497606 0.500902 L 367.164297 0.500902 " stroke="#6d6e71" stroke-width="1" stroke-opacity="1" stroke-miterlimit="4"/><path stroke-linecap="round" transform="matrix(0.75, 0, 0, 0.75, 49.626796, 152.905713)" fill="none" stroke-linejoin="miter" d="M 0.497606 0.500716 L 367.164297 0.500716 " stroke="#6d6e71" stroke-width="1" stroke-opacity="1" stroke-miterlimit="4"/></svg>