<svg xmlns="http://www.w3.org/2000/svg" xmlns:xlink="http://www.w3.org/1999/xlink" width="500" zoomAndPan="magnify" viewBox="0 0 375 374.999991" height="500" preserveAspectRatio="xMidYMid meet" version="1.0"><defs><g/><clipPath id="ccd39dd94d"><path d="M 132 97 L 266.261719 97 L 266.261719 231.355469 L 132 231.355469 Z M 132 97 " clip-rule="nonzero"/></clipPath></defs><rect x="-37.5" width="450" fill="#ffffff" y="-37.499999" height="449.999989" fill-opacity="1"/><rect x="-37.5" width="450" fill="#ffffff" y="-37.499999" height="449.999989" fill-opacity="1"/><g clip-path="url(#ccd39dd94d)"><path fill="#03acee" d="M 243.367188 97.824219 L 132.746094 208.449219 C 133.671875 209.375 135.1875 209.375 136.113281 208.449219 L 144.527344 200.035156 L 143.3125 206.132812 C 143.058594 207.433594 143.898438 208.675781 145.183594 208.933594 C 146.484375 209.191406 147.726562 208.347656 147.984375 207.0625 L 150.597656 193.949219 L 162.738281 181.808594 L 159.511719 199.105469 C 159.269531 200.40625 160.125 201.648438 161.410156 201.890625 C 162.710938 202.132812 163.953125 201.277344 164.195312 199.992188 L 168.710938 175.839844 L 185.648438 158.898438 L 185.648438 182.851562 L 171.765625 203.121094 C 171.023438 204.207031 171.292969 205.691406 172.394531 206.433594 C 173.480469 207.175781 174.964844 206.90625 175.707031 205.820312 L 185.648438 191.292969 L 185.648438 208.460938 L 178.234375 219.574219 C 177.507812 220.671875 177.792969 222.160156 178.894531 222.886719 C 179.992188 223.617188 181.476562 223.332031 182.207031 222.230469 L 185.648438 217.058594 L 185.648438 228.972656 C 185.648438 229.628906 185.921875 230.230469 186.347656 230.65625 C 186.777344 231.085938 187.378906 231.355469 188.035156 231.355469 C 189.347656 231.355469 190.417969 230.285156 190.417969 228.972656 L 190.417969 217.074219 L 193.863281 222.246094 C 194.589844 223.332031 196.074219 223.628906 197.175781 222.902344 C 198.273438 222.171875 198.5625 220.6875 197.832031 219.589844 L 190.417969 208.460938 L 190.417969 191.308594 L 200.359375 205.820312 C 201.101562 206.90625 202.589844 207.175781 203.675781 206.449219 C 204.761719 205.703125 205.046875 204.21875 204.304688 203.132812 L 190.417969 182.867188 L 190.417969 158.914062 L 207.359375 175.851562 L 211.871094 200.007812 C 212.117188 201.304688 213.359375 202.148438 214.65625 201.917969 C 215.957031 201.675781 216.800781 200.433594 216.570312 199.132812 L 213.328125 181.835938 L 225.46875 193.976562 L 228.085938 207.089844 C 228.339844 208.375 229.597656 209.21875 230.898438 208.960938 C 232.183594 208.703125 233.027344 207.449219 232.769531 206.160156 L 231.554688 200.078125 L 239.96875 208.488281 C 240.894531 209.417969 242.410156 209.417969 243.339844 208.488281 C 244.265625 207.5625 244.265625 206.046875 243.339844 205.121094 L 234.925781 196.707031 L 241.023438 197.921875 C 242.308594 198.175781 243.582031 197.335938 243.824219 196.050781 C 244.082031 194.75 243.238281 193.492188 241.953125 193.234375 L 228.839844 190.621094 L 216.699219 178.480469 L 233.996094 181.722656 C 235.296875 181.964844 236.539062 181.109375 236.78125 179.808594 C 237.027344 178.511719 236.167969 177.265625 234.867188 177.023438 L 210.714844 172.511719 L 193.777344 155.570312 L 217.742188 155.570312 L 238.011719 169.453125 C 239.097656 170.195312 240.582031 169.925781 241.339844 168.824219 C 242.082031 167.742188 241.808594 166.253906 240.710938 165.511719 L 226.199219 155.570312 L 243.351562 155.570312 L 254.480469 162.984375 C 255.578125 163.710938 257.050781 163.414062 257.792969 162.328125 C 258.523438 161.226562 258.234375 159.742188 257.136719 159.011719 L 251.964844 155.570312 L 263.863281 155.570312 C 264.519531 155.570312 265.121094 155.300781 265.550781 154.871094 C 265.976562 154.441406 266.25 153.84375 266.25 153.1875 C 266.25 151.871094 265.175781 150.800781 263.863281 150.800781 L 251.953125 150.800781 L 257.121094 147.359375 C 258.222656 146.628906 258.507812 145.144531 257.777344 144.042969 C 257.050781 142.945312 255.566406 142.660156 254.464844 143.386719 L 243.351562 150.800781 L 226.183594 150.800781 L 240.710938 140.859375 C 241.796875 140.117188 242.066406 138.632812 241.324219 137.546875 C 240.582031 136.460938 239.097656 136.175781 238.011719 136.917969 L 217.742188 150.800781 L 193.777344 150.800781 L 210.714844 133.859375 L 234.867188 129.347656 C 236.167969 129.105469 237.011719 127.863281 236.769531 126.5625 C 236.527344 125.261719 235.28125 124.40625 233.984375 124.664062 L 216.6875 127.890625 L 228.828125 115.75 L 241.9375 113.136719 C 243.238281 112.878906 244.066406 111.621094 243.808594 110.335938 C 243.554688 109.035156 242.296875 108.207031 241.011719 108.464844 L 234.910156 109.679688 L 243.324219 101.265625 C 244.296875 100.265625 244.296875 98.765625 243.367188 97.824219 Z M 243.367188 97.824219 " fill-opacity="1" fill-rule="nonzero"/></g><path fill="#ed1b24" d="M 145.484375 183.722656 L 129.660156 199.550781 C 128.058594 201.148438 128.058594 203.761719 129.660156 205.363281 L 151.296875 183.722656 C 149.683594 182.109375 147.085938 182.109375 145.484375 183.722656 Z M 145.484375 183.722656 " fill-opacity="1" fill-rule="nonzero"/><path fill="#ed1b24" d="M 139.085938 162.828125 L 138.84375 161.898438 C 138.328125 159.957031 136.328125 158.8125 134.402344 159.328125 L 111.863281 165.371094 C 109.921875 165.882812 108.777344 167.882812 109.292969 169.8125 L 109.535156 170.738281 C 110.046875 172.683594 112.046875 173.824219 113.976562 173.3125 L 136.515625 167.269531 C 138.457031 166.753906 139.613281 164.769531 139.085938 162.828125 Z M 139.085938 162.828125 " fill-opacity="1" fill-rule="nonzero"/><path fill="#ed1b24" d="M 138.84375 138.1875 L 139.085938 137.261719 C 139.601562 135.316406 138.457031 133.332031 136.515625 132.816406 L 113.976562 126.777344 C 112.035156 126.261719 110.046875 127.40625 109.535156 129.347656 L 109.292969 130.277344 C 108.777344 132.21875 109.921875 134.203125 111.863281 134.71875 L 134.402344 140.757812 C 136.328125 141.273438 138.328125 140.117188 138.84375 138.1875 Z M 138.84375 138.1875 " fill-opacity="1" fill-rule="nonzero"/><path fill="#ed1b24" d="M 150.957031 116.707031 L 151.625 116.035156 C 153.039062 114.621094 153.039062 112.320312 151.625 110.894531 L 135.128906 94.398438 C 133.714844 92.984375 131.417969 92.984375 129.988281 94.398438 L 129.316406 95.066406 C 127.902344 96.480469 127.902344 98.78125 129.316406 100.210938 L 145.8125 116.707031 C 147.242188 118.136719 149.542969 118.136719 150.957031 116.707031 Z M 150.957031 116.707031 " fill-opacity="1" fill-rule="nonzero"/><path fill="#ed1b24" d="M 172.179688 104.167969 L 173.109375 103.921875 C 175.050781 103.410156 176.195312 101.410156 175.679688 99.480469 L 169.636719 76.941406 C 169.125 75 167.125 73.855469 165.195312 74.371094 L 164.265625 74.613281 C 162.324219 75.128906 161.183594 77.128906 161.695312 79.054688 L 167.738281 101.59375 C 168.253906 103.539062 170.238281 104.695312 172.179688 104.167969 Z M 172.179688 104.167969 " fill-opacity="1" fill-rule="nonzero"/><path fill="#ed1b24" d="M 196.832031 103.921875 L 197.761719 104.167969 C 199.703125 104.679688 201.6875 103.539062 202.203125 101.59375 L 208.246094 79.054688 C 208.757812 77.113281 207.617188 75.128906 205.675781 74.613281 L 204.746094 74.371094 C 202.804688 73.855469 200.816406 75 200.304688 76.941406 L 194.261719 99.480469 C 193.746094 101.410156 194.890625 103.410156 196.832031 103.921875 Z M 196.832031 103.921875 " fill-opacity="1" fill-rule="nonzero"/><path fill="#ed1b24" d="M 157.253906 122.335938 C 141.957031 137.632812 141.957031 162.457031 157.253906 177.753906 L 212.671875 122.335938 C 197.375 107.035156 172.550781 107.035156 157.253906 122.335938 Z M 157.253906 122.335938 " fill-opacity="1" fill-rule="nonzero"/><path fill="#ed1b24" d="M 234.453125 94.738281 L 218.628906 110.566406 C 217.027344 112.164062 217.027344 114.777344 218.628906 116.378906 L 240.28125 94.738281 C 239.480469 93.941406 238.425781 93.539062 237.367188 93.539062 C 236.3125 93.539062 235.269531 93.925781 234.453125 94.738281 Z M 234.453125 94.738281 " fill-opacity="1" fill-rule="nonzero"/><g fill="#ed1b24" fill-opacity="1"><g transform="translate(115.825611, 280.17549)"><g><path d="M 18.230469 0 L 10.96875 -10.007812 L 17.515625 -19.246094 L 12.675781 -19.246094 L 6.351562 -10.339844 L 6.351562 -19.246094 L 2.199219 -19.246094 L 2.199219 0 L 6.351562 0 L 6.351562 -9.375 L 13.144531 0 Z M 18.230469 0 "/></g></g></g><g fill="#ed1b24" fill-opacity="1"><g transform="translate(144.859873, 280.17549)"><g><path d="M 17.707031 0 C 16.632812 -1.210938 15.617188 -2.335938 14.683594 -3.410156 C 15.753906 -4.949219 16.386719 -6.875 16.46875 -9.101562 L 13.085938 -9.101562 C 13.003906 -8 12.730469 -7.011719 12.316406 -6.160156 C 11.164062 -7.507812 10.144531 -8.714844 9.320312 -9.761719 C 11.4375 -10.996094 13.5 -12.398438 13.5 -14.984375 C 13.5 -17.707031 11.328125 -19.550781 8.109375 -19.550781 C 4.867188 -19.550781 2.667969 -17.734375 2.667969 -14.957031 C 2.667969 -13.859375 2.996094 -12.757812 4.480469 -10.640625 C 2.667969 -9.457031 1.074219 -7.863281 1.074219 -5.167969 C 1.074219 -1.84375 3.519531 0.328125 7.121094 0.328125 C 9.128906 0.328125 10.886719 -0.191406 12.34375 -1.128906 C 12.675781 -0.769531 13.03125 -0.386719 13.363281 0 Z M 8.109375 -16.605469 C 9.238281 -16.605469 9.953125 -15.945312 9.953125 -14.957031 C 9.953125 -13.859375 8.851562 -13.085938 7.421875 -12.316406 C 6.652344 -13.445312 6.269531 -14.324219 6.269531 -14.929688 C 6.269531 -15.945312 6.984375 -16.605469 8.109375 -16.605469 Z M 7.507812 -3.105469 C 5.910156 -3.105469 4.839844 -3.988281 4.839844 -5.304688 C 4.839844 -6.433594 5.5 -7.257812 6.460938 -8 C 7.421875 -6.820312 8.605469 -5.445312 10.0625 -3.765625 C 9.292969 -3.328125 8.441406 -3.105469 7.507812 -3.105469 Z M 7.507812 -3.105469 "/></g></g></g><g fill="#03acee" fill-opacity="1"><g transform="translate(173.622486, 280.17549)"><g><path d="M 18.230469 0 L 10.96875 -10.007812 L 17.515625 -19.246094 L 12.675781 -19.246094 L 6.351562 -10.339844 L 6.351562 -19.246094 L 2.199219 -19.246094 L 2.199219 0 L 6.351562 0 L 6.351562 -9.375 L 13.144531 0 Z M 18.230469 0 "/></g></g></g><g fill="#03acee" fill-opacity="1"><g transform="translate(94.359795, 329.944822)"><g><path d="M 4.203125 -2.984375 L 1.21875 -1.953125 L 1.09375 -0.375 L -0.046875 0.015625 L 0.578125 -6.875 L 1.65625 -7.25 L 6.40625 -2.21875 L 5.25 -1.828125 Z M 3.515625 -3.734375 L 1.5 -5.9375 L 1.265625 -2.96875 Z M 3.515625 -3.734375 "/></g></g></g><g fill="#03acee" fill-opacity="1"><g transform="translate(107.533709, 325.380175)"><g><path d="M -1.265625 -6.234375 L -0.15625 -6.609375 L 1.90625 -0.65625 L 0.796875 -0.28125 Z M -1.265625 -6.234375 "/></g></g></g><g fill="#03acee" fill-opacity="1"><g transform="translate(117.050885, 322.082557)"><g><path d="M 4.6875 -1.625 L 2.875 -2.9375 C 2.8125 -2.914062 2.734375 -2.890625 2.640625 -2.859375 L 1.296875 -2.390625 L 1.90625 -0.65625 L 0.796875 -0.28125 L -1.265625 -6.234375 L 1.1875 -7.078125 C 1.695312 -7.253906 2.171875 -7.328125 2.609375 -7.296875 C 3.054688 -7.265625 3.4375 -7.117188 3.75 -6.859375 C 4.0625 -6.609375 4.296875 -6.269531 4.453125 -5.84375 C 4.609375 -5.382812 4.628906 -4.957031 4.515625 -4.5625 C 4.410156 -4.175781 4.1875 -3.828125 3.84375 -3.515625 L 5.890625 -2.046875 Z M 3.34375 -5.453125 C 3.207031 -5.828125 2.976562 -6.070312 2.65625 -6.1875 C 2.34375 -6.3125 1.945312 -6.289062 1.46875 -6.125 L 0.171875 -5.671875 L 0.984375 -3.296875 L 2.28125 -3.75 C 2.757812 -3.914062 3.085938 -4.144531 3.265625 -4.4375 C 3.453125 -4.726562 3.476562 -5.066406 3.34375 -5.453125 Z M 3.34375 -5.453125 "/></g></g></g><g fill="#03acee" fill-opacity="1"><g transform="translate(130.071725, 317.57095)"><g/></g></g><g fill="#03acee" fill-opacity="1"><g transform="translate(139.223225, 314.400035)"><g><path d="M 3.59375 -1.140625 C 2.988281 -0.929688 2.394531 -0.875 1.8125 -0.96875 C 1.238281 -1.070312 0.734375 -1.304688 0.296875 -1.671875 C -0.128906 -2.035156 -0.445312 -2.515625 -0.65625 -3.109375 C -0.851562 -3.691406 -0.894531 -4.257812 -0.78125 -4.8125 C -0.664062 -5.375 -0.410156 -5.867188 -0.015625 -6.296875 C 0.367188 -6.734375 0.863281 -7.054688 1.46875 -7.265625 C 1.957031 -7.429688 2.429688 -7.5 2.890625 -7.46875 C 3.359375 -7.4375 3.785156 -7.3125 4.171875 -7.09375 L 3.703125 -6.1875 C 3.109375 -6.488281 2.492188 -6.53125 1.859375 -6.3125 C 1.453125 -6.164062 1.113281 -5.945312 0.84375 -5.65625 C 0.582031 -5.375 0.414062 -5.039062 0.34375 -4.65625 C 0.28125 -4.28125 0.316406 -3.894531 0.453125 -3.5 C 0.585938 -3.09375 0.800781 -2.757812 1.09375 -2.5 C 1.394531 -2.25 1.734375 -2.085938 2.109375 -2.015625 C 2.492188 -1.953125 2.890625 -1.992188 3.296875 -2.140625 C 3.929688 -2.359375 4.390625 -2.78125 4.671875 -3.40625 L 5.609375 -2.96875 C 5.441406 -2.539062 5.179688 -2.171875 4.828125 -1.859375 C 4.484375 -1.546875 4.070312 -1.304688 3.59375 -1.140625 Z M 3.59375 -1.140625 "/></g></g></g><g fill="#03acee" fill-opacity="1"><g transform="translate(152.210049, 309.900214)"><g><path d="M 3.609375 -1.140625 C 3.003906 -0.929688 2.410156 -0.875 1.828125 -0.96875 C 1.242188 -1.070312 0.734375 -1.304688 0.296875 -1.671875 C -0.140625 -2.046875 -0.457031 -2.523438 -0.65625 -3.109375 C -0.851562 -3.679688 -0.894531 -4.25 -0.78125 -4.8125 C -0.664062 -5.375 -0.410156 -5.867188 -0.015625 -6.296875 C 0.378906 -6.734375 0.878906 -7.054688 1.484375 -7.265625 C 2.085938 -7.484375 2.679688 -7.539062 3.265625 -7.4375 C 3.847656 -7.34375 4.359375 -7.113281 4.796875 -6.75 C 5.242188 -6.394531 5.566406 -5.925781 5.765625 -5.34375 C 5.972656 -4.75 6.015625 -4.171875 5.890625 -3.609375 C 5.765625 -3.046875 5.503906 -2.546875 5.109375 -2.109375 C 4.710938 -1.679688 4.210938 -1.359375 3.609375 -1.140625 Z M 3.265625 -2.125 C 3.660156 -2.269531 3.988281 -2.484375 4.25 -2.765625 C 4.507812 -3.054688 4.671875 -3.390625 4.734375 -3.765625 C 4.804688 -4.148438 4.773438 -4.546875 4.640625 -4.953125 C 4.503906 -5.347656 4.285156 -5.671875 3.984375 -5.921875 C 3.691406 -6.179688 3.359375 -6.34375 2.984375 -6.40625 C 2.609375 -6.476562 2.222656 -6.441406 1.828125 -6.296875 C 1.429688 -6.160156 1.101562 -5.945312 0.84375 -5.65625 C 0.582031 -5.375 0.414062 -5.039062 0.34375 -4.65625 C 0.28125 -4.28125 0.316406 -3.894531 0.453125 -3.5 C 0.585938 -3.09375 0.800781 -2.757812 1.09375 -2.5 C 1.394531 -2.25 1.734375 -2.085938 2.109375 -2.015625 C 2.484375 -1.953125 2.867188 -1.988281 3.265625 -2.125 Z M 3.265625 -2.125 "/></g></g></g><g fill="#03acee" fill-opacity="1"><g transform="translate(166.174835, 305.061538)"><g><path d="M 4.015625 -8.0625 L 6.078125 -2.109375 L 5.1875 -1.796875 L 0.5 -4.6875 L 1.890625 -0.65625 L 0.796875 -0.28125 L -1.265625 -6.234375 L -0.34375 -6.546875 L 4.3125 -3.65625 L 2.921875 -7.6875 Z M 4.015625 -8.0625 "/></g></g></g><g fill="#03acee" fill-opacity="1"><g transform="translate(179.867491, 300.317152)"><g><path d="M -1.265625 -6.234375 L 1.328125 -7.125 C 1.972656 -7.351562 2.582031 -7.425781 3.15625 -7.34375 C 3.726562 -7.269531 4.226562 -7.054688 4.65625 -6.703125 C 5.082031 -6.347656 5.398438 -5.875 5.609375 -5.28125 C 5.816406 -4.6875 5.863281 -4.113281 5.75 -3.5625 C 5.632812 -3.019531 5.375 -2.539062 4.96875 -2.125 C 4.5625 -1.71875 4.035156 -1.398438 3.390625 -1.171875 L 0.796875 -0.28125 Z M 3.015625 -2.09375 C 3.453125 -2.25 3.804688 -2.46875 4.078125 -2.75 C 4.359375 -3.03125 4.535156 -3.351562 4.609375 -3.71875 C 4.679688 -4.09375 4.644531 -4.488281 4.5 -4.90625 C 4.351562 -5.3125 4.140625 -5.632812 3.859375 -5.875 C 3.578125 -6.125 3.238281 -6.273438 2.84375 -6.328125 C 2.457031 -6.378906 2.046875 -6.328125 1.609375 -6.171875 L 0.171875 -5.671875 L 1.578125 -1.59375 Z M 3.015625 -2.09375 "/></g></g></g><g fill="#03acee" fill-opacity="1"><g transform="translate(193.696212, 295.525621)"><g><path d="M -1.265625 -6.234375 L -0.15625 -6.609375 L 1.90625 -0.65625 L 0.796875 -0.28125 Z M -1.265625 -6.234375 "/></g></g></g><g fill="#03acee" fill-opacity="1"><g transform="translate(203.213391, 292.228002)"><g><path d="M 0.28125 -5.71875 L -1.703125 -5.03125 L -2.03125 -5.96875 L 3.015625 -7.71875 L 3.34375 -6.78125 L 1.375 -6.09375 L 3.109375 -1.078125 L 2.015625 -0.703125 Z M 0.28125 -5.71875 "/></g></g></g><g fill="#03acee" fill-opacity="1"><g transform="translate(215.137205, 288.096504)"><g><path d="M -1.265625 -6.234375 L -0.15625 -6.609375 L 1.90625 -0.65625 L 0.796875 -0.28125 Z M -1.265625 -6.234375 "/></g></g></g><g fill="#03acee" fill-opacity="1"><g transform="translate(224.654384, 284.798885)"><g><path d="M 3.609375 -1.140625 C 3.003906 -0.929688 2.410156 -0.875 1.828125 -0.96875 C 1.242188 -1.070312 0.734375 -1.304688 0.296875 -1.671875 C -0.140625 -2.046875 -0.457031 -2.523438 -0.65625 -3.109375 C -0.851562 -3.679688 -0.894531 -4.25 -0.78125 -4.8125 C -0.664062 -5.375 -0.410156 -5.867188 -0.015625 -6.296875 C 0.378906 -6.734375 0.878906 -7.054688 1.484375 -7.265625 C 2.085938 -7.484375 2.679688 -7.539062 3.265625 -7.4375 C 3.847656 -7.34375 4.359375 -7.113281 4.796875 -6.75 C 5.242188 -6.394531 5.566406 -5.925781 5.765625 -5.34375 C 5.972656 -4.75 6.015625 -4.171875 5.890625 -3.609375 C 5.765625 -3.046875 5.503906 -2.546875 5.109375 -2.109375 C 4.710938 -1.679688 4.210938 -1.359375 3.609375 -1.140625 Z M 3.265625 -2.125 C 3.660156 -2.269531 3.988281 -2.484375 4.25 -2.765625 C 4.507812 -3.054688 4.671875 -3.390625 4.734375 -3.765625 C 4.804688 -4.148438 4.773438 -4.546875 4.640625 -4.953125 C 4.503906 -5.347656 4.285156 -5.671875 3.984375 -5.921875 C 3.691406 -6.179688 3.359375 -6.34375 2.984375 -6.40625 C 2.609375 -6.476562 2.222656 -6.441406 1.828125 -6.296875 C 1.429688 -6.160156 1.101562 -5.945312 0.84375 -5.65625 C 0.582031 -5.375 0.414062 -5.039062 0.34375 -4.65625 C 0.28125 -4.28125 0.316406 -3.894531 0.453125 -3.5 C 0.585938 -3.09375 0.800781 -2.757812 1.09375 -2.5 C 1.394531 -2.25 1.734375 -2.085938 2.109375 -2.015625 C 2.484375 -1.953125 2.867188 -1.988281 3.265625 -2.125 Z M 3.265625 -2.125 "/></g></g></g><g fill="#03acee" fill-opacity="1"><g transform="translate(238.61917, 279.960209)"><g><path d="M 4.015625 -8.0625 L 6.078125 -2.109375 L 5.1875 -1.796875 L 0.5 -4.6875 L 1.890625 -0.65625 L 0.796875 -0.28125 L -1.265625 -6.234375 L -0.34375 -6.546875 L 4.3125 -3.65625 L 2.921875 -7.6875 Z M 4.015625 -8.0625 "/></g></g></g><g fill="#03acee" fill-opacity="1"><g transform="translate(252.311826, 275.215823)"><g><path d="M -1.265625 -6.234375 L -0.15625 -6.609375 L 1.90625 -0.65625 L 0.796875 -0.28125 Z M -1.265625 -6.234375 "/></g></g></g><g fill="#03acee" fill-opacity="1"><g transform="translate(261.829004, 271.918204)"><g><path d="M 4.015625 -8.0625 L 6.078125 -2.109375 L 5.1875 -1.796875 L 0.5 -4.6875 L 1.890625 -0.65625 L 0.796875 -0.28125 L -1.265625 -6.234375 L -0.34375 -6.546875 L 4.3125 -3.65625 L 2.921875 -7.6875 Z M 4.015625 -8.0625 "/></g></g></g><g fill="#03acee" fill-opacity="1"><g transform="translate(275.521661, 267.173818)"><g><path d="M 3.8125 -4.734375 L 4.859375 -5.09375 L 5.671875 -2.71875 C 5.453125 -2.375 5.160156 -2.0625 4.796875 -1.78125 C 4.429688 -1.507812 4.035156 -1.296875 3.609375 -1.140625 C 3.003906 -0.929688 2.410156 -0.875 1.828125 -0.96875 C 1.242188 -1.070312 0.734375 -1.304688 0.296875 -1.671875 C -0.128906 -2.035156 -0.445312 -2.515625 -0.65625 -3.109375 C -0.851562 -3.691406 -0.894531 -4.257812 -0.78125 -4.8125 C -0.664062 -5.375 -0.410156 -5.867188 -0.015625 -6.296875 C 0.378906 -6.734375 0.890625 -7.0625 1.515625 -7.28125 C 2.003906 -7.445312 2.476562 -7.519531 2.9375 -7.5 C 3.40625 -7.476562 3.84375 -7.359375 4.25 -7.140625 L 3.765625 -6.21875 C 3.160156 -6.507812 2.535156 -6.546875 1.890625 -6.328125 C 1.472656 -6.179688 1.128906 -5.960938 0.859375 -5.671875 C 0.585938 -5.390625 0.414062 -5.054688 0.34375 -4.671875 C 0.269531 -4.296875 0.304688 -3.90625 0.453125 -3.5 C 0.585938 -3.09375 0.800781 -2.765625 1.09375 -2.515625 C 1.382812 -2.265625 1.722656 -2.101562 2.109375 -2.03125 C 2.503906 -1.96875 2.910156 -2.007812 3.328125 -2.15625 C 3.796875 -2.3125 4.164062 -2.554688 4.4375 -2.890625 Z M 3.8125 -4.734375 "/></g></g></g><g fill="#ed1b24" fill-opacity="1"><g transform="translate(145.39486, 237.175882)"><g><path d="M 7.8125 -4.484375 L 6.234375 1.609375 L 5.109375 1.3125 L 5.78125 -1.3125 L 2.625 -2.125 L 1.953125 0.5 L 0.8125 0.203125 L 2.390625 -5.890625 L 3.53125 -5.59375 L 2.875 -3.078125 L 6.03125 -2.265625 L 6.6875 -4.78125 Z M 7.8125 -4.484375 "/></g></g></g><g fill="#ed1b24" fill-opacity="1"><g transform="translate(159.426276, 240.797666)"><g><path d="M 5.65625 0.4375 L 5.40625 1.390625 L 0.8125 0.203125 L 2.390625 -5.890625 L 6.84375 -4.734375 L 6.59375 -3.78125 L 3.28125 -4.640625 L 2.875 -3.078125 L 5.828125 -2.3125 L 5.578125 -1.359375 L 2.625 -2.125 L 2.203125 -0.453125 Z M 5.65625 0.4375 "/></g></g></g><g fill="#ed1b24" fill-opacity="1"><g transform="translate(172.237673, 244.104539)"><g><path d="M 5.140625 -0.171875 L 2.078125 -0.96875 L 1.125 0.28125 L -0.046875 -0.015625 L 4.28125 -5.390625 L 5.390625 -5.109375 L 6.5625 1.6875 L 5.390625 1.390625 Z M 5 -1.15625 L 4.53125 -4.125 L 2.703125 -1.75 Z M 5 -1.15625 "/></g></g></g><g fill="#ed1b24" fill-opacity="1"><g transform="translate(185.737515, 247.589114)"><g><path d="M 3.390625 -4.609375 L 1.359375 -5.140625 L 1.609375 -6.09375 L 6.78125 -4.75 L 6.53125 -3.796875 L 4.515625 -4.3125 L 3.1875 0.828125 L 2.0625 0.53125 Z M 3.390625 -4.609375 "/></g></g></g><g fill="#ed1b24" fill-opacity="1"><g transform="translate(197.956328, 250.74303)"><g><path d="M 2.390625 -5.890625 L 3.53125 -5.59375 L 1.953125 0.5 L 0.8125 0.203125 Z M 2.390625 -5.890625 "/></g></g></g><g fill="#ed1b24" fill-opacity="1"><g transform="translate(207.70896, 253.260376)"><g><path d="M 7.8125 -4.484375 L 6.234375 1.609375 L 5.3125 1.375 L 3 -3.625 L 1.9375 0.5 L 0.8125 0.203125 L 2.390625 -5.890625 L 3.328125 -5.640625 L 5.609375 -0.65625 L 6.6875 -4.78125 Z M 7.8125 -4.484375 "/></g></g></g><g fill="#ed1b24" fill-opacity="1"><g transform="translate(221.740372, 256.882159)"><g><path d="M 5.78125 -1.828125 L 6.84375 -1.546875 L 6.21875 0.859375 C 5.84375 1.035156 5.429688 1.132812 4.984375 1.15625 C 4.535156 1.1875 4.085938 1.144531 3.640625 1.03125 C 3.023438 0.875 2.5 0.59375 2.0625 0.1875 C 1.632812 -0.207031 1.335938 -0.675781 1.171875 -1.21875 C 1.003906 -1.769531 1 -2.351562 1.15625 -2.96875 C 1.3125 -3.5625 1.59375 -4.054688 2 -4.453125 C 2.414062 -4.859375 2.90625 -5.128906 3.46875 -5.265625 C 4.039062 -5.410156 4.644531 -5.398438 5.28125 -5.234375 C 5.789062 -5.109375 6.234375 -4.90625 6.609375 -4.625 C 6.984375 -4.351562 7.273438 -4.015625 7.484375 -3.609375 L 6.578125 -3.109375 C 6.234375 -3.679688 5.734375 -4.050781 5.078125 -4.21875 C 4.648438 -4.332031 4.242188 -4.34375 3.859375 -4.25 C 3.484375 -4.164062 3.160156 -3.984375 2.890625 -3.703125 C 2.617188 -3.421875 2.425781 -3.078125 2.3125 -2.671875 C 2.207031 -2.253906 2.207031 -1.859375 2.3125 -1.484375 C 2.414062 -1.117188 2.609375 -0.796875 2.890625 -0.515625 C 3.179688 -0.242188 3.539062 -0.0507812 3.96875 0.0625 C 4.445312 0.175781 4.890625 0.175781 5.296875 0.0625 Z M 5.78125 -1.828125 "/></g></g></g></svg>